<svg width="443" height="429" xmlns="http://www.w3.org/2000/svg" xmlns:xlink="http://www.w3.org/1999/xlink" overflow="hidden"><defs><clipPath id="clip0"><path d="M331 141 774 141 774 570 331 570Z" fill-rule="evenodd" clip-rule="evenodd"/></clipPath></defs><g clip-path="url(#clip0)" transform="translate(-331 -141)"><path d="M336 355C336 236.811 432.93 141 552.5 141 672.07 141 769 236.811 769 355 769 473.189 672.07 569 552.5 569 432.93 569 336 473.189 336 355Z" fill="#F2F2F2" fill-rule="evenodd"/><path d="M552.505 146.351C433.903 146.351 337.404 239.956 337.404 355.005 337.404 470.055 433.903 563.649 552.505 563.649 671.107 563.649 767.607 470.055 767.607 355.005 767.607 239.956 671.107 146.351 552.505 146.351ZM552.505 569C430.916 569 332 473.002 332 355.005 332 237.008 430.916 141 552.505 141 674.094 141 773 237.008 773 355.005 773 473.002 674.094 569 552.505 569Z" fill="#00A859" fill-rule="evenodd"/><path d="M552.505 193.34C460.364 193.34 385.391 266.091 385.391 355.5 385.391 444.909 460.364 517.65 552.505 517.65 644.646 517.65 719.609 444.909 719.609 355.5 719.609 266.091 644.646 193.34 552.505 193.34ZM552.505 523C457.379 523 380 447.856 380 355.5 380 263.134 457.379 188 552.505 188 647.621 188 725 263.134 725 355.5 725 447.856 647.621 523 552.505 523Z" fill="#00A859" fill-rule="evenodd"/><path d="M544.482 343.664 506.946 306.745C517.467 298.589 530.346 293.161 544.482 291.608L544.482 343.664ZM559.864 291.516C574.135 292.855 587.221 298.139 597.898 306.234L559.864 343.664 559.864 291.516ZM559.864 380.266 597.369 417.175C586.785 425.045 573.906 430.166 559.864 431.474L559.864 380.266ZM544.482 431.382C530.595 429.88 517.893 424.606 507.476 416.664L544.482 380.266 544.482 431.382ZM614.267 412.361 563.063 361.97 609.053 316.701C609.063 316.711 609.074 316.721 609.074 316.742L620 305.969C603.746 287.642 579.639 276 552.76 276 525.579 276 501.254 287.887 485 306.561L490.068 311.559 490.058 311.57 541.273 361.97 490.058 412.361 490.141 412.432 485.509 416.991C501.743 435.348 525.859 447 552.76 447 579.38 447 603.289 435.573 619.522 417.543L614.257 412.371 614.267 412.361Z" fill="#3E4095" fill-rule="evenodd"/><path d="M705.774 372.36C705.774 372.36 710.162 350.745 708.703 343.676 708.703 343.676 693.075 360.409 685.862 370.914 686.1 367.723 686.266 364.522 686.266 361.281 686.266 357.239 686.059 353.258 685.696 349.309 691.057 346.046 701.075 337.511 699.057 319.979 696.325 296.281 691.523 289.623 691.523 289.623 691.523 289.623 681.774 303.041 678.98 318.994 676.682 312.51 673.867 306.263 670.566 300.271 673.35 294.588 676.02 282.862 666.136 264.263 666.136 264.263 659.005 249.5 647.673 240.975 647.673 240.975 646.679 257.646 650.084 272.624 646.607 269.043 642.892 265.668 639.011 262.488 634.767 220.919 594.612 215 594.612 215 595.543 222.735 606.183 237.785 611.854 245.356 605.696 242.422 599.228 239.95 592.511 237.928 587.057 230.593 573.779 217.062 551 218.734 551 218.734 566.731 243.263 587.709 243.468 599.6 246.741 610.664 251.593 620.713 257.728 582.596 257.266 579.326 262.396 579.326 262.396 586.239 270.295 595.285 272.255 601.349 273.619 620.62 277.958 631.393 272.593 636.206 268.89 642.954 274.594 649.07 280.954 654.421 287.889 647.818 285.406 632.677 280.492 621.044 282.554 621.044 282.554 629.51 312.397 665.412 304.908 669.841 313.187 673.308 321.989 675.689 331.191 669.086 326.011 651.492 312.982 643.057 314.152 643.057 314.152 650.85 353.812 679.114 351.412 679.373 354.664 679.539 357.957 679.539 361.281 679.539 368.585 678.824 375.715 677.551 382.67 674.053 374.761 664.749 356.777 650.198 350.54 650.198 350.54 651.771 393.647 673.029 399.946 669.738 409.456 665.298 418.463 659.813 426.793 659.026 419.161 656.035 397.545 646.638 387.533 646.638 387.533 629.634 422.649 650.178 439.576 642.643 448.316 633.877 456.031 624.159 462.463 627.192 456.103 634.581 438.211 629.851 422.454 629.851 422.454 597.924 452.153 610.271 470.414 592.987 478.949 573.468 483.791 552.78 483.791L552.78 490.47C554.353 490.47 555.926 490.408 557.51 490.357L557.51 492.932C557.51 492.932 567.983 491.475 575.952 496.471 583.931 501.457 596.309 507.694 611.606 501.242 611.606 501.242 621.675 494.594 624.397 493.763 624.397 493.763 623.663 492.768 621.251 492.511 618.943 492.265 593.411 490.614 582.286 487.249 594.053 484.674 605.23 480.601 615.58 475.236 618.767 477.893 629.551 484.109 652.506 472.558 652.506 472.558 668.009 462.576 673.049 456.759 673.049 456.759 653.479 456.072 638.245 460.422 644.661 455.231 650.571 449.496 655.87 443.259 660.309 444.305 674.136 446.06 687.932 432.025 704.718 414.975 703.466 409.364 703.466 409.364 703.466 409.364 685.541 412.564 670.41 422.28 674.178 415.529 677.303 408.41 679.777 401.003 684.351 399.915 700.061 394.622 705.774 372.36Z" fill="#FFF118" fill-rule="evenodd"/><path d="M560.865 490.391C565.28 490.391 571.7 491.099 577.195 494.538 582.504 497.854 589.723 501.652 598.335 501.652 602.293 501.652 606.313 500.831 610.25 499.209 611.341 498.5 613.969 496.786 616.68 495.154 608.391 494.466 590.347 492.844 581.319 490.124L571.492 487.158 581.527 484.961C592.975 482.456 604.007 478.504 614.291 473.176L615.881 472.355 617.273 473.505C618.82 474.788 622.352 476.944 628.751 476.944 635.182 476.944 642.744 474.798 651.221 470.549 652.312 469.861 660.466 464.543 666.367 459.739 659.573 459.914 648.385 460.632 639.046 463.291L626.372 466.884 636.584 458.641C642.91 453.549 648.728 447.893 653.901 441.827L654.981 440.564 656.591 440.944C660.643 441.898 673.327 443.5 686.229 430.443 694.736 421.83 698.362 416.348 699.91 413.248 693.791 414.778 682.188 418.299 672.038 424.807L663.011 430.586 668.184 421.265C671.883 414.665 674.978 407.654 677.409 400.427L677.877 399.011 679.331 398.672C683.642 397.656 698.092 392.718 703.442 371.952 704.293 367.722 706.08 357.734 706.506 350.61 701.343 356.328 692.97 365.885 688.306 372.66L682.603 380.944 683.361 370.956C683.642 367.384 683.767 364.376 683.767 361.522 683.767 357.724 683.59 353.772 683.206 349.779L683.05 348.126 684.483 347.264C689.792 344.041 698.445 336.27 696.627 320.492 695.1 307.281 692.918 299.51 691.381 295.374 688.379 300.383 683.611 309.55 681.845 319.661L680.089 329.772 676.63 320.092C674.407 313.83 671.602 307.661 668.361 301.759L667.665 300.547 668.278 299.305C670.709 294.388 673.347 283.487 663.884 265.697 663.78 265.492 658.596 254.939 650.307 246.891 650.307 252.948 650.691 262.977 652.789 272.226L654.919 281.536 648.208 274.669C644.77 271.158 641.113 267.812 637.322 264.722L636.459 264.024 636.366 262.936C633.114 231.309 608.318 221.434 598.252 218.713 600.496 224.482 605.981 233.341 613.959 243.925L620.493 252.599 610.624 247.918C604.558 245.054 598.158 242.611 591.593 240.65L590.731 240.393 590.201 239.675C585.225 233.023 574.245 221.967 555.941 221.444 561.26 228.106 573.269 240.825 587.583 240.968L587.947 240.968 588.29 241.071C600.226 244.335 611.59 249.242 622.093 255.617L630.413 260.698 620.649 260.564C597.566 260.298 587.656 262.073 583.646 263.305 589.505 268.438 596.403 269.988 601.628 271.158L601.826 271.209C606.427 272.226 610.79 272.759 614.852 272.759 624.929 272.759 631.141 269.598 634.569 266.97L636.304 265.635 637.976 267.032C644.884 272.842 651.169 279.38 656.654 286.453L662.419 293.895 653.548 290.58C647.907 288.475 636.958 284.934 627.068 284.934 626.279 284.934 625.51 284.965 624.762 285.006 627.453 290.949 635.462 303.647 654.503 303.647 657.807 303.647 661.328 303.257 665.006 302.498L666.99 302.087 667.946 303.863C672.516 312.404 676.069 321.457 678.479 330.747L680.484 338.426 674.199 333.509C662.824 324.629 652.644 318.676 646.629 317.269 649.143 326.128 657.537 349.081 676.838 349.081 677.565 349.081 678.313 349.05 679.061 348.978L681.772 348.742 682.001 351.421C682.271 354.87 682.416 358.258 682.416 361.522 682.416 368.718 681.751 376.078 680.411 383.397L678.812 392.01 675.259 384.003C672.36 377.474 664.819 362.672 653.34 355.415 654.451 366.429 658.69 393.139 673.96 397.645L676.672 398.436 675.757 401.064C672.402 410.703 667.842 419.931 662.191 428.533L658.015 434.867 657.235 427.342C656.633 421.604 654.296 403.661 647.419 393.088 643.845 402.511 637.197 425.68 651.99 437.823L654.098 439.558 652.312 441.611C644.572 450.552 635.597 458.425 625.625 464.995L617.491 470.364 621.687 461.618C624.523 455.746 630.33 441.59 628.284 428.123 620.701 436.16 603.758 456.434 612.442 469.245L614.146 471.77 611.393 473.125C593.775 481.789 574.91 486.377 555.183 486.767L555.183 488.071C555.64 488.061 556.087 488.051 556.523 488.02L559.93 487.907 559.93 490.401C560.232 490.391 560.533 490.391 560.865 490.391ZM598.335 507C588.331 507 580.229 502.75 574.307 499.045 569.674 496.16 563.899 495.729 560.865 495.729 558.902 495.729 557.624 495.903 557.604 495.903L554.529 496.314 554.518 493.44C553.853 493.46 553.178 493.471 552.492 493.471L549.792 493.471 549.792 481.44 552.492 481.44C571.378 481.44 589.505 477.447 606.438 469.553 597.172 449.71 626.684 422.015 628.003 420.793L631.203 417.827 632.45 421.974C635.971 433.655 633.26 446.271 630.175 455.171 636.065 450.624 641.518 445.573 646.474 440.081 627.64 421.553 643.544 388.099 644.24 386.641L645.975 383.11 648.665 385.974C656.311 394.083 659.947 408.855 661.598 419.192 664.798 413.597 667.52 407.777 669.763 401.772 649.33 392.595 647.637 352.633 647.575 350.857L647.419 346.638 651.345 348.321C662.949 353.279 671.343 365.095 676.318 374.046 676.775 369.847 677.025 365.649 677.025 361.522 677.025 359.213 676.942 356.831 676.786 354.429 648.561 354.378 640.791 316.489 640.469 314.877L639.908 312.116 642.744 311.716C643.222 311.654 643.721 311.623 644.24 311.623 651.439 311.623 662.43 318.316 670.958 324.393 669.088 318.819 666.782 313.379 664.092 308.113 660.767 308.698 657.568 308.985 654.503 308.985 625.988 308.985 618.488 283.723 618.415 283.466L617.615 280.633 620.534 280.12C622.539 279.771 624.742 279.586 627.068 279.586 633.696 279.586 640.667 281.013 646.442 282.624 643.191 279.052 639.721 275.654 636.065 272.462 631.743 275.274 624.918 278.097 614.852 278.097 610.396 278.097 605.607 277.533 600.631 276.414L600.423 276.373C594.086 274.946 584.54 272.801 577.081 264.322L575.762 262.823 576.842 261.139C579.055 257.69 591.178 255.576 610.365 255.247 602.979 251.531 595.219 248.544 587.168 246.306 565.072 245.824 549.085 221.372 548.431 220.325L546 216.558 550.508 216.229C551.859 216.137 553.22 216.075 554.549 216.075 575.419 216.075 588.051 228.106 594.014 235.795 597.369 236.811 600.662 237.971 603.903 239.213 597.982 230.672 592.507 221.403 591.801 215.459L591.396 212 594.897 212.503C595.312 212.565 636.594 219.124 641.622 261.293 643.097 262.546 644.583 263.808 646.037 265.132 644.365 252.753 645.009 241.553 645.04 240.989L645.341 235.99 649.382 239.018C661.121 247.836 668.423 262.669 668.704 263.295 678.531 281.742 676.391 294.07 673.721 300.362 675.498 303.637 677.129 306.983 678.583 310.381 682.541 297.991 689.2 288.732 689.542 288.27L691.755 285.242 693.937 288.27C694.466 289.009 699.266 296.174 701.998 319.887 704.065 337.687 694.342 347.048 688.742 350.888 689.033 354.501 689.179 358.073 689.179 361.522 689.179 361.861 689.179 362.2 689.179 362.549 696.804 353.002 706.506 342.634 707.015 342.08L710.578 338.272 711.659 343.363C713.175 350.754 709.176 370.874 708.708 373.132 703.099 394.987 688.358 401.608 682.073 403.466 680.598 407.695 678.915 411.822 677.025 415.856 690.124 409.399 702.642 407.11 703.255 407.007L705.81 406.556 706.371 409.06C706.735 410.713 706.662 417.385 690.103 434.179 676.62 447.832 663.053 447.503 656.986 446.477 654.119 449.772 651.055 452.944 647.834 455.962 657.028 454.545 665.972 454.35 670.189 454.35 672.153 454.35 673.295 454.381 673.295 454.381L678.915 454.576 675.259 458.805C670.023 464.841 654.69 474.696 654.057 475.106L653.807 475.25C644.489 479.921 636.065 482.282 628.751 482.282 622.165 482.282 617.813 480.352 615.268 478.689 608.401 482.128 601.233 485.002 593.816 487.27 603.384 488.728 614.624 489.621 619.257 489.991 620.399 490.083 621.189 490.145 621.511 490.186 624.856 490.535 626.217 492.044 626.559 492.506L628.824 495.534 625.178 496.632C623.692 497.094 617.844 500.636 613.045 503.797L612.608 504.033C607.903 506.004 603.114 507 598.335 507Z" fill="#00A859" fill-rule="evenodd"/><path d="M553.64 487.869 553.64 483.951C538.377 483.951 523.717 481.213 510.187 476.228 511.671 468.885 512.739 447.716 482.733 428.434 482.733 428.434 477.4 445.49 493.711 468.782 483.76 463.377 474.63 456.659 466.578 448.885 485.576 431.593 463.155 393.911 463.155 393.911 450.476 404.814 454.232 428.013 456.576 438.034 449.936 429.911 444.323 420.947 439.944 411.326 462.781 405.203 453.879 360.947 453.879 360.947 442.103 361.973 436.116 385.562 434.082 395.788 431.073 385.768 429.341 375.234 429.04 364.342 454.522 364.496 461.567 323.276 461.567 323.276 446.948 324.394 433.501 341.706 429.776 346.906 430.897 337.389 433.097 328.148 436.344 319.348 460.623 322.312 479.289 292.148 479.289 292.148 466.703 289.194 450.496 297.81 444.707 301.256 449.417 292.938 455.124 285.204 461.66 278.199 465.966 281.451 474.173 285.522 486.168 282.476 504.698 277.769 512.376 268.087 512.376 268.087 512.376 268.087 502.436 259.81 475.647 265.389 483.231 259.451 491.584 254.343 500.579 250.251 526.778 248.948 538.045 221 538.045 221 510.135 223.236 500.372 237.882 497.384 244.343 489.477 247.984 482.028 252.354 475.138 257.359 479.289 251.092 491.241 232.159 491.459 221.78 491.459 221.78 440.557 251.082 456.94 273.42 451.565 279.143 446.72 285.348 442.507 291.933 445.9 273.646 442.777 255.266 442.777 255.266 436.697 258.928 425.056 281.943 425.056 281.943 415.676 303.85 426.809 314.445 430.025 316.937 427.39 324.148 425.367 331.645 424.039 339.348 413.715 313.707 406.255 311.245 406.255 311.245 406.255 311.245 400.694 317.266 404.138 341.85 407.002 362.394 418.56 364.311 422.285 364.383 422.524 373.368 423.696 382.209 425.782 390.803 408.237 370.475 397 371.665 397 371.665 413.466 422.711 431.073 414.588 433.491 413.183 436.448 419.695 439.924 425.983 443.96 431.982 422.866 420.752 411.277 425.039 411.277 425.039 437.786 462.423 457.905 454.505 461.318 452.782 467.927 459.254 475.097 464.936 482.712 469.828 477.296 469.069 456.794 466.864 446.74 474.997 446.74 474.997 486.956 501.479 505.819 481.613 515.468 485.387 525.543 488.013 535.908 489.408 527.877 491.428 506.991 496.556 500.195 496.966 500.195 496.966 500.724 498.802 503.37 500.895 506.016 502.987 516.34 511.613 527.452 508.218 538.564 504.813 538.44 495.141 558.018 492.782L560 487.551 553.64 487.869Z" fill="#FFF118" fill-rule="evenodd"/><path d="M505.513 498.349 505.575 498.39C507.819 500.191 514.687 505.667 522.32 505.667 523.861 505.667 525.35 505.442 526.808 505.002 530.625 503.835 532.931 501.788 535.599 499.434 539.778 495.739 544.473 491.593 555.436 489.822L551.02 490.037 551.02 485.974C536.747 485.677 522.775 483.036 509.433 478.123L507.282 477.325 507.726 475.103C509.185 467.949 509.681 449.924 485.004 432.492 484.528 438.49 485.293 451.131 496.174 466.669L502.679 475.963 492.657 470.528C482.615 465.062 473.317 458.235 465.043 450.241L463.005 448.276 465.095 446.382C479.191 433.516 467.525 407.067 462.86 397.967 454.235 408.786 457.586 428.47 459.572 436.904L462.23 448.214 454.845 439.186C448.071 430.865 442.362 421.704 437.914 411.949L436.59 409.104 439.652 408.285C456.676 403.72 453.511 373.381 452.084 363.913 445.154 367.27 439.9 382.092 437.159 395.859L435.039 406.473 431.936 396.104C428.823 385.746 427.106 374.947 426.807 364.026L426.724 361.272 429.516 361.293C448.06 361.293 456.045 336.062 458.434 326.317 448.888 329.03 438.969 338.958 432.422 348.109L426.362 356.584 427.551 346.267C428.678 336.676 430.923 327.218 434.232 318.149L434.956 316.153 437.087 316.419C438.1 316.542 439.124 316.604 440.117 316.604 456.252 316.604 469.614 301.086 474.879 293.993 474.61 293.983 474.33 293.972 474.041 293.972 463.305 293.972 451.194 300.482 446.488 303.287L437.801 308.456 442.765 299.694C447.554 291.24 453.356 283.338 460.047 276.183L461.702 274.402 463.647 275.866C466.553 278.066 471.424 280.666 478.24 280.666 480.65 280.666 483.194 280.339 485.769 279.673 497.622 276.664 504.82 271.485 508.161 268.516 505.472 267.37 500.6 265.937 493.05 265.937 488.034 265.937 482.47 266.571 476.513 267.81L465.343 270.144 474.289 263.122C482.077 257.011 490.62 251.822 499.701 247.676L500.166 247.461 500.683 247.431C518.752 246.54 529.353 231.576 533.541 224.104 510.736 227.4 502.596 239.846 500.083 245.322L499.67 246.213 498.77 246.632C491.106 250.143 483.794 254.422 477.05 259.345L465.043 268.097 473.193 255.732C476.254 251.126 485.076 237.277 488.045 227.154 478.84 233.213 459.965 247.072 457.11 260.451 456.241 264.606 457.007 268.271 459.489 271.659L460.792 273.429 459.292 275.036C454.069 280.584 449.333 286.674 445.175 293.133L437.759 304.689 440.272 291.219C442.465 279.438 441.834 267.472 441.183 260.84 436.963 266.244 431.316 276.265 427.955 282.857 419.494 302.724 429.02 312.141 432.154 314.546L433.684 315.744 433.022 317.556C430.416 324.639 428.451 331.998 427.179 339.46L425.576 348.826 422.008 340.002C415.626 324.117 410.445 317.556 407.766 314.997 406.639 318.364 405.222 326.02 407.331 341.159 409.855 359.143 419.008 361.262 422.825 361.344L425.369 361.395 425.452 363.934C425.7 372.675 426.848 381.355 428.865 389.748L431.471 400.526 424.2 392.102C413.775 380.024 405.842 375.96 401.488 374.609 412.927 407.671 424.231 411.355 428.699 411.355 430.778 411.355 432.195 410.629 432.578 410.414L435.174 408.889 436.384 411.611C439.3 418.06 442.744 424.232 446.612 429.995L452.59 438.879 443.096 433.813C430.282 426.985 421.294 426.167 416.505 426.453 432.009 446.986 444.74 451.438 452.859 451.438 456.883 451.438 459.51 450.333 460.44 449.852L462.168 448.982 463.564 450.333C469.904 456.556 476.957 462.166 484.456 466.997L494.643 473.548 482.615 471.869C480.422 471.562 475.954 471.05 470.762 471.05 463.016 471.05 456.696 472.176 452.228 474.346 458.93 478.164 473.834 485.718 487.145 485.718 494.26 485.718 499.949 483.507 504.065 479.188L505.327 477.867 507.013 478.522C516.466 482.227 526.343 484.786 536.375 486.138L550.079 487.99 536.665 491.358C529.673 493.128 514.542 496.844 505.513 498.349ZM522.32 511C512.805 511 504.82 504.644 502.183 502.545L501.904 502.32C498.759 499.833 497.963 497.489 497.839 497.059L496.908 493.865 500.259 493.671C504.458 493.405 514.635 491.173 523.282 489.147 517.635 487.837 512.101 486.148 506.692 484.111 501.666 488.717 495.109 491.04 487.145 491.04 467.753 491.04 446.54 477.202 445.64 476.608L442.62 474.622 445.433 472.33C450.842 467.949 459.375 465.717 470.762 465.717 471.641 465.717 472.489 465.738 473.317 465.758 469.045 462.544 464.96 459.074 461.092 455.379 454.059 457.979 434.088 460.671 409.597 426.064L407.59 423.249 410.858 422.042C411.107 421.939 413.609 421.069 418.108 421.069 422.452 421.069 428.937 421.888 437.345 425.235 435.639 422.277 434.046 419.247 432.578 416.146 431.502 416.453 430.209 416.678 428.699 416.678 419.877 416.678 406.856 408.94 394.993 372.091L394 369.051 397.258 368.632C397.258 368.632 397.485 368.611 397.92 368.611 400.547 368.611 409.214 369.665 421.759 381.703 420.922 376.656 420.384 371.549 420.167 366.41 414.644 365.438 404.673 360.975 402.015 341.886 398.509 316.839 404.146 309.889 404.787 309.183L405.977 307.903 407.632 308.446C408.924 308.865 415.099 311.783 423.6 330.115 424.635 325.836 425.876 321.609 427.334 317.474 422.638 313.103 414.106 301.598 423.031 280.697L423.104 280.543C425.1 276.592 435.38 256.694 441.772 252.835L445.175 250.778 445.837 254.667C445.94 255.282 447.905 267.135 446.912 281.331 449.146 278.435 451.484 275.63 453.925 272.938 451.504 268.813 450.801 264.238 451.846 259.345 456.128 239.324 488.975 220.194 490.372 219.395L494.509 217 494.405 221.749C494.26 229.017 489.037 239.754 484.114 248.301 487.838 246.09 491.675 244.043 495.615 242.2 499.173 235.097 509.847 220.511 537.916 218.259L542.25 217.911 540.636 221.893C540.161 223.09 528.608 251.034 501.479 252.723 496.329 255.107 491.344 257.84 486.597 260.911 488.82 260.717 490.971 260.614 493.05 260.614 507.83 260.614 514.046 265.65 514.294 265.865L516.269 267.523 514.666 269.54C514.335 269.97 506.237 279.97 487.103 284.842 484.094 285.6 481.105 285.989 478.24 285.989 471.352 285.989 466.067 283.798 462.416 281.516 458.848 285.497 455.548 289.714 452.539 294.116 458.672 291.342 466.574 288.65 474.041 288.65 476.223 288.65 478.302 288.875 480.205 289.325L483.814 290.175 481.88 293.307C481.156 294.484 463.905 321.926 440.117 321.926 439.621 321.926 439.124 321.916 438.607 321.885 436.901 326.85 435.505 331.926 434.47 337.065 440.945 329.879 450.936 321.148 461.702 320.319L465.146 320.063 464.557 323.431C464.267 325.13 457.358 363.923 432.288 366.492 432.588 372.419 433.312 378.294 434.47 384.077 437.997 371.969 444.089 358.785 454.028 357.925L456.438 357.71 456.903 360.054C457.265 361.876 465.25 403.034 444.047 412.379 446.478 417.395 449.27 422.226 452.373 426.863 451.101 415.255 451.784 400.035 461.723 391.468L464.174 389.349 465.829 392.123C466.729 393.668 487.486 429.155 470.742 448.255 475.52 452.698 480.65 456.72 486.069 460.323 476.275 441.172 480.246 427.784 480.453 427.149L481.477 423.771 484.476 425.696C512.97 444.018 514.646 464.131 513.394 473.875 526.343 478.389 539.902 480.672 553.699 480.672L556.398 480.672 556.398 484.438 564 484.06 560.008 494.592 558.384 494.787C547.421 496.107 543.232 499.823 539.188 503.405 536.303 505.954 533.345 508.584 528.391 510.089 526.436 510.693 524.398 511 522.32 511Z" fill="#00A859" fill-rule="evenodd"/><path d="M705.774 372.36C705.774 372.36 710.162 350.745 708.703 343.676 708.703 343.676 693.075 360.409 685.862 370.914 686.1 367.723 686.266 364.522 686.266 361.281 686.266 357.239 686.059 353.258 685.696 349.309 691.057 346.046 701.075 337.511 699.057 319.979 696.325 296.281 691.523 289.623 691.523 289.623 691.523 289.623 681.774 303.041 678.98 318.994 676.682 312.51 673.867 306.263 670.566 300.271 673.35 294.588 676.02 282.862 666.136 264.263 666.136 264.263 659.005 249.5 647.673 240.975 647.673 240.975 646.679 257.646 650.084 272.624 646.607 269.043 642.892 265.668 639.011 262.488 634.767 220.919 594.612 215 594.612 215 595.543 222.735 606.183 237.785 611.854 245.356 605.696 242.422 599.228 239.95 592.511 237.928 587.057 230.593 573.779 217.062 551 218.734 551 218.734 566.731 243.263 587.709 243.468 599.6 246.741 610.664 251.593 620.713 257.728 582.596 257.266 579.326 262.396 579.326 262.396 586.239 270.295 595.285 272.255 601.349 273.619 620.62 277.958 631.393 272.593 636.206 268.89 642.954 274.594 649.07 280.954 654.421 287.889 647.818 285.406 632.677 280.492 621.044 282.554 621.044 282.554 629.51 312.397 665.412 304.908 669.841 313.187 673.308 321.989 675.689 331.191 669.086 326.011 651.492 312.982 643.057 314.152 643.057 314.152 650.85 353.812 679.114 351.412 679.373 354.664 679.539 357.957 679.539 361.281 679.539 368.585 678.824 375.715 677.551 382.67 674.053 374.761 664.749 356.777 650.198 350.54 650.198 350.54 651.771 393.647 673.029 399.946 669.738 409.456 665.298 418.463 659.813 426.793 659.026 419.161 656.035 397.545 646.638 387.533 646.638 387.533 629.634 422.649 650.178 439.576 642.643 448.316 633.877 456.031 624.159 462.463 627.192 456.103 634.581 438.211 629.851 422.454 629.851 422.454 597.924 452.153 610.271 470.414 592.987 478.949 573.468 483.791 552.78 483.791L552.78 490.47C554.353 490.47 555.926 490.408 557.51 490.357L557.51 492.932C557.51 492.932 567.983 491.475 575.952 496.471 583.931 501.457 596.309 507.694 611.606 501.242 611.606 501.242 621.675 494.594 624.397 493.763 624.397 493.763 623.787 491.886 621.251 492.511 618.995 493.076 593.411 490.614 582.286 487.249 594.053 484.674 605.23 480.601 615.58 475.236 618.767 477.893 629.551 484.109 652.506 472.558 652.506 472.558 668.009 462.576 673.049 456.759 673.049 456.759 653.479 456.072 638.245 460.422 644.661 455.231 650.571 449.496 655.87 443.259 660.309 444.305 674.136 446.06 687.932 432.025 704.718 414.975 703.466 409.364 703.466 409.364 703.466 409.364 685.541 412.564 670.41 422.28 674.178 415.529 677.303 408.41 679.777 401.003 684.351 399.915 700.061 394.622 705.774 372.36Z" fill="#FFF35A" fill-rule="evenodd"/><path d="M553.64 487.869 553.64 483.951C538.377 483.951 523.717 481.213 510.187 476.228 511.671 468.885 512.739 447.716 482.733 428.434 482.733 428.434 477.4 445.49 493.711 468.782 483.76 463.377 474.63 456.659 466.578 448.885 485.576 431.593 463.155 393.911 463.155 393.911 450.476 404.814 454.232 428.013 456.576 438.034 449.936 429.911 444.323 420.947 439.944 411.326 462.781 405.203 453.879 360.947 453.879 360.947 442.103 361.973 436.116 385.562 434.082 395.788 431.073 385.768 429.341 375.234 429.04 364.342 454.522 364.496 461.567 323.276 461.567 323.276 446.948 324.394 433.501 341.706 429.776 346.906 430.897 337.389 433.097 328.148 436.344 319.348 460.623 322.312 479.289 292.148 479.289 292.148 466.703 289.194 450.496 297.81 444.707 301.256 449.417 292.938 455.124 285.204 461.66 278.199 465.966 281.451 474.173 285.522 486.168 282.476 504.698 277.769 512.376 268.087 512.376 268.087 512.376 268.087 502.436 259.81 475.647 265.389 483.231 259.451 491.584 254.343 500.579 250.251 526.778 248.948 538.045 221 538.045 221 510.135 223.236 500.372 237.882 497.384 244.343 489.477 247.984 482.028 252.354 475.138 257.359 479.289 251.092 491.241 232.159 491.459 221.78 491.459 221.78 440.557 251.082 456.94 273.42 451.565 279.143 446.72 285.348 442.507 291.933 445.9 273.646 442.777 255.266 442.777 255.266 436.697 258.928 425.056 281.943 425.056 281.943 415.676 303.85 426.809 314.445 430.025 316.937 427.39 324.148 425.367 331.645 424.039 339.348 413.715 313.707 406.255 311.245 406.255 311.245 406.255 311.245 400.694 317.266 404.138 341.85 407.002 362.394 418.56 364.311 422.285 364.383 422.524 373.368 423.696 382.209 425.782 390.803 408.237 370.475 397 371.665 397 371.665 413.466 422.711 431.073 414.588 433.491 413.183 436.448 419.695 439.924 425.983 443.96 431.982 422.866 420.752 411.277 425.039 411.277 425.039 437.786 462.423 457.905 454.505 461.318 452.782 467.927 459.254 475.097 464.936 482.712 469.828 477.296 469.069 456.794 466.864 446.74 474.997 446.74 474.997 486.956 501.479 505.819 481.613 515.468 485.387 525.543 488.013 535.908 489.408 527.877 491.428 506.991 496.556 500.195 496.966 500.195 496.966 500.724 498.802 503.37 500.895 506.016 502.987 516.34 511.613 527.452 508.218 538.564 504.813 538.564 495.141 558.143 492.782L560 487.551 553.64 487.869Z" fill="#FFF35A" fill-rule="evenodd"/><path d="M375.241 362.847C375.058 363.246 374.813 363.603 374.547 363.93 374.353 364.195 374.118 364.41 373.884 364.634 373.833 364.706 373.782 364.767 373.71 364.828 372.985 365.492 372.148 366.002 371.189 366.308 370.576 366.513 369.944 366.615 369.29 366.635 369.77 367.013 370.199 367.452 370.566 367.952 370.668 368.105 370.75 368.279 370.862 368.442L370.862 368.442 370.862 368.442C371.056 368.789 371.24 369.157 371.393 369.524 371.393 369.545 371.393 369.555 371.403 369.565 371.536 369.923 371.658 370.29 371.74 370.668 371.76 370.77 371.76 370.882 371.781 370.984 371.822 371.281 371.873 371.566 371.873 371.862 371.883 372.281 371.873 372.71 371.801 373.139 371.505 374.976 370.525 376.589 369.025 377.692 367.82 378.55 366.402 379.019 364.942 379.019 364.442 379.019 363.941 378.958 363.472 378.856 363.441 378.846 363.4 378.846 363.38 378.836 362.9 378.723 362.431 378.56 361.992 378.356 361.971 378.346 361.971 378.346 361.951 378.335 361.502 378.121 361.083 377.856 360.685 377.559 360.685 377.549 360.685 377.549 360.675 377.539 360.144 377.151 359.675 376.681 359.287 376.14 358.899 375.599 358.613 375.007 358.399 374.384 358.174 374.966 357.909 375.528 357.531 376.048 357.409 376.202 357.296 376.334 357.184 376.467L357.184 376.467C357.184 376.467 357.184 376.467 357.184 376.477 356.857 376.855 356.49 377.192 356.102 377.488 356.092 377.498 356.082 377.508 356.061 377.519 355.684 377.804 355.275 378.049 354.836 378.254 354.806 378.264 354.775 378.274 354.744 378.295 354.316 378.478 353.897 378.642 353.428 378.734 353.397 378.744 353.366 378.754 353.325 378.764 352.856 378.866 352.376 378.917 351.886 378.917 350.416 378.917 348.997 378.458 347.803 377.59 347.436 377.314 347.089 377.008 346.772 376.671 346.65 376.518 346.537 376.355 346.405 376.202 346.262 376.008 346.109 375.814 345.966 375.609 345.823 375.375 345.721 375.109 345.598 374.854 345.537 374.721 345.466 374.588 345.404 374.456 345.292 374.119 345.19 373.782 345.119 373.435 345.098 373.374 345.078 373.302 345.068 373.231 344.996 372.832 344.965 372.424 344.965 372.016 344.965 372.005 344.965 371.995 344.965 371.985 344.955 370.699 345.313 369.402 346.027 368.248L346.027 368.248 346.027 368.248C346.119 368.126 346.17 367.983 346.252 367.86 346.66 367.319 347.109 366.87 347.619 366.472 347.017 366.441 346.395 366.349 345.813 366.155 345.619 366.094 345.455 366.002 345.272 365.921L345.272 365.921 345.272 365.921C344.914 365.767 344.537 365.584 344.2 365.369 344.19 365.359 344.18 365.349 344.169 365.349 343.853 365.134 343.547 364.91 343.261 364.644 343.189 364.573 343.118 364.491 343.046 364.41 342.832 364.205 342.638 364.001 342.444 363.766 342.189 363.44 341.964 363.082 341.76 362.694 340.923 361.04 340.76 359.141 341.342 357.375 342.281 354.506 344.945 352.566 347.967 352.566 348.263 352.566 348.559 352.597 348.844 352.628 349.273 352.689 349.692 352.771 350.11 352.903 350.753 353.107 351.335 353.434 351.876 353.802 351.702 353.21 351.59 352.597 351.59 351.954 351.59 350.402 352.131 348.973 352.999 347.809 353.009 347.798 353.019 347.788 353.029 347.768 353.264 347.451 353.519 347.155 353.826 346.88 353.877 346.829 353.928 346.788 353.989 346.726 354.254 346.512 354.52 346.287 354.785 346.104 354.928 346.022 355.071 345.961 355.194 345.879 355.449 345.757 355.673 345.614 355.928 345.512 356.153 345.409 356.398 345.358 356.633 345.287 356.827 345.236 357 345.164 357.194 345.124 357.643 345.032 358.103 344.981 358.562 344.981 359.032 344.981 359.491 345.032 359.92 345.124 360.124 345.164 360.308 345.236 360.501 345.297 360.736 345.369 360.981 345.409 361.185 345.512 361.461 345.624 361.706 345.767 361.951 345.91 362.063 345.981 362.216 346.042 362.339 346.114 362.635 346.318 362.9 346.533 363.186 346.778 363.237 346.829 363.288 346.859 363.329 346.9 363.645 347.186 363.901 347.502 364.146 347.829 364.156 347.839 364.156 347.85 364.166 347.85 364.932 348.891 365.381 350.147 365.473 351.515L365.473 351.515 365.473 351.515C365.483 351.668 365.534 351.801 365.534 351.954 365.534 352.628 365.391 353.281 365.217 353.904 365.728 353.557 366.279 353.261 366.892 353.067 367.31 352.924 367.749 352.842 368.178 352.791 368.463 352.75 368.77 352.72 369.045 352.72 372.077 352.72 374.731 354.659 375.66 357.538 376.242 359.294 376.089 361.183 375.241 362.847ZM377.558 356.916C376.364 353.21 372.924 350.718 369.045 350.718 368.494 350.718 367.973 350.79 367.453 350.882 366.912 346.451 363.145 343 358.562 343 354.02 343 350.284 346.39 349.681 350.759 349.13 350.647 348.538 350.565 347.967 350.565 344.067 350.565 340.637 353.056 339.443 356.762 338.698 359.039 338.902 361.469 339.984 363.603 340.882 365.369 342.332 366.727 344.088 367.564 341.913 371.475 342.924 376.498 346.65 379.203 348.181 380.316 349.998 380.918 351.886 380.918 354.336 380.918 356.684 379.887 358.368 378.141 360.042 379.959 362.421 381 364.942 381 366.83 381 368.647 380.418 370.189 379.295 372.128 377.886 373.394 375.814 373.761 373.455 374.078 371.475 373.7 369.514 372.751 367.789 374.598 366.952 376.099 365.573 377.017 363.756 378.11 361.612 378.293 359.192 377.558 356.916Z" fill="#00A859" fill-rule="evenodd"/><path d="M360 350.549C360 349.694 359.336 349 358.495 349 357.664 349 357 349.694 357 350.549 357 351.061 357.249 351.488 357.623 351.777L357.623 360 359.211 360 359.211 351.883C359.678 351.627 360 351.136 360 350.549Z" fill="#00A859" fill-rule="evenodd"/><path d="M355.487 363 356 361.542 348.126 359.18C348.017 358.677 347.645 358.235 347.077 358.074 346.258 357.822 345.352 358.235 345.079 358.999 344.806 359.773 345.264 360.587 346.116 360.828 346.597 360.979 347.099 360.869 347.492 360.617L355.487 363Z" fill="#00A859" fill-rule="evenodd"/><path d="M355.816 365 351.558 371.824C351.071 371.757 350.575 371.957 350.269 372.447 349.811 373.169 349.954 374.169 350.575 374.692 351.176 375.214 352.054 375.058 352.503 374.336 352.761 373.914 352.809 373.38 352.685 372.924L357 366 355.816 365Z" fill="#00A859" fill-rule="evenodd"/><path d="M365.607 371.85 361.207 365 360 365.99 364.341 372.74C364.127 373.246 364.156 373.862 364.458 374.356 364.916 375.049 365.802 375.214 366.425 374.697 367.057 374.181 367.184 373.191 366.726 372.476 366.464 372.059 366.035 371.85 365.607 371.85Z" fill="#00A859" fill-rule="evenodd"/><path d="M371.92 359.038C371.671 358.241 370.779 357.817 369.943 358.076 369.454 358.231 369.117 358.593 368.965 359.027L361 361.49 361.522 363 369.378 360.569C369.78 360.931 370.345 361.096 370.921 360.921 371.747 360.672 372.192 359.824 371.92 359.038Z" fill="#00A859" fill-rule="evenodd"/><path d="M355.903 355.515C355.662 355.067 355.077 354.873 354.584 355.087 354.08 355.291 353.851 355.82 354.103 356.258 354.241 356.522 354.504 356.685 354.802 356.736L357.049 361 358 360.603 355.776 356.4C355.994 356.146 356.052 355.81 355.903 355.515Z" fill="#00A859" fill-rule="evenodd"/><path d="M356 362.946 355.913 362 351.52 362.572C351.345 362.312 351.054 362.156 350.734 362.197 350.278 362.26 349.949 362.707 350.007 363.205 350.055 363.694 350.482 364.047 350.947 363.995 351.219 363.953 351.432 363.766 351.568 363.527L356 362.946Z" fill="#00A859" fill-rule="evenodd"/><path d="M357.227 364 356.503 369.081C356.26 369.195 356.058 369.456 356.016 369.82 355.932 370.354 356.192 370.877 356.579 370.979 356.983 371.093 357.378 370.729 357.437 370.206 357.487 369.888 357.42 369.581 357.243 369.354L358 364.193 357.227 364Z" fill="#00A859" fill-rule="evenodd"/><path d="M364.712 365.311 360.473 363 360 363.825 364.186 366.105C364.186 366.425 364.354 366.724 364.638 366.889 365.07 367.126 365.638 366.971 365.88 366.538 366.132 366.105 365.974 365.569 365.532 365.321 365.27 365.177 364.964 365.187 364.712 365.311Z" fill="#00A859" fill-rule="evenodd"/><path d="M364.723 357.288C364.335 356.922 363.677 356.901 363.278 357.246 363.019 357.445 362.925 357.727 362.96 357.998L359 361.3 359.729 362 363.654 358.751C363.995 358.855 364.382 358.803 364.676 358.573 365.088 358.228 365.111 357.664 364.723 357.288Z" fill="#00A859" fill-rule="evenodd"/><path d="M354.108 358.176C353.819 357.908 353.385 357.951 353.153 358.272 352.922 358.583 352.951 359.044 353.25 359.322 353.404 359.483 353.626 359.515 353.819 359.461L356.547 362 357 361.4 354.32 358.893C354.359 358.636 354.291 358.358 354.108 358.176Z" fill="#00A859" fill-rule="evenodd"/><path d="M357 363.781 356.567 363 353.145 365.406C352.912 365.257 352.612 365.245 352.356 365.418 352.012 365.666 351.89 366.187 352.112 366.596 352.345 367.006 352.834 367.117 353.178 366.869 353.401 366.72 353.501 366.472 353.523 366.212L357 363.781Z" fill="#00A859" fill-rule="evenodd"/><path d="M358 364.183 358.862 367.786C358.686 367.948 358.598 368.203 358.657 368.467 358.745 368.844 359.137 369.078 359.48 368.976 359.862 368.885 360.068 368.508 359.98 368.121 359.941 367.898 359.764 367.735 359.578 367.653L358.706 364 358 364.183Z" fill="#00A859" fill-rule="evenodd"/><path d="M363.766 363.187 360.05 363 360 363.524 363.675 363.711C363.766 363.869 363.988 363.984 364.251 363.999 364.634 364.02 364.978 363.812 364.998 363.539 365.028 363.266 364.725 363.022 364.342 363.007 364.109 362.993 363.907 363.065 363.766 363.187Z" fill="#00A859" fill-rule="evenodd"/><path d="M360.67 357.05C360.407 356.903 360.098 357.092 359.993 357.461 359.933 357.682 359.963 357.914 360.046 358.103L359 361.726 359.512 362 360.542 358.451C360.723 358.419 360.896 358.261 360.956 358.009 361.076 357.629 360.941 357.208 360.67 357.05Z" fill="#00A859" fill-rule="evenodd"/><path d="M362 363.505C362 365.435 360.435 367 358.495 367 356.565 367 355 365.435 355 363.505 355 361.565 356.565 360 358.495 360 360.435 360 362 361.565 362 363.505Z" fill="#00A859" fill-rule="evenodd"/><path d="M763.161 362.847C762.952 363.246 762.732 363.603 762.449 363.93 762.25 364.195 762.02 364.41 761.79 364.634 761.717 364.706 761.664 364.767 761.602 364.828 760.858 365.492 759.989 366.002 759.016 366.308 758.388 366.513 757.718 366.615 757.058 366.635 757.54 367.013 757.99 367.452 758.367 367.952 758.493 368.105 758.555 368.279 758.66 368.442L758.66 368.442 758.66 368.442C758.89 368.789 759.068 369.157 759.225 369.524 759.236 369.545 759.236 369.555 759.236 369.565 759.382 369.923 759.487 370.29 759.571 370.668 759.592 370.77 759.602 370.882 759.623 370.984 759.665 371.281 759.717 371.566 759.728 371.862 759.738 372.281 759.717 372.71 759.644 373.139 759.351 374.976 758.315 376.589 756.776 377.692 755.551 378.55 754.117 379.019 752.589 379.019 752.065 379.019 751.563 378.958 751.092 378.856 751.06 378.846 751.029 378.846 751.008 378.836 750.505 378.723 750.045 378.56 749.595 378.356 749.574 378.346 749.553 378.346 749.532 378.335 749.071 378.121 748.642 377.856 748.244 377.559 748.234 377.549 748.234 377.549 748.223 377.539 747.689 377.151 747.208 376.681 746.8 376.14 746.391 375.599 746.109 375.007 745.889 374.384 745.659 374.966 745.387 375.528 744.999 376.048 744.895 376.202 744.758 376.334 744.633 376.467L744.633 376.467C744.633 376.467 744.633 376.467 744.633 376.477 744.319 376.855 743.942 377.192 743.544 377.488 743.534 377.498 743.513 377.508 743.513 377.519 743.105 377.804 742.686 378.049 742.246 378.254 742.215 378.264 742.183 378.274 742.152 378.295 741.723 378.478 741.273 378.642 740.791 378.734 740.76 378.744 740.718 378.754 740.676 378.764 740.205 378.866 739.723 378.917 739.231 378.917 737.714 378.917 736.269 378.458 735.023 377.59 734.636 377.314 734.29 377.008 733.966 376.671 733.84 376.518 733.715 376.355 733.6 376.202 733.453 376.008 733.275 375.814 733.16 375.609 733.003 375.375 732.888 375.109 732.773 374.854 732.71 374.721 732.637 374.588 732.574 374.456 732.438 374.119 732.354 373.782 732.291 373.435 732.27 373.374 732.249 373.302 732.239 373.231 732.145 372.832 732.113 372.424 732.103 372.016 732.103 372.005 732.103 371.995 732.103 371.985 732.103 370.699 732.459 369.402 733.212 368.248L733.212 368.248 733.212 368.248C733.286 368.126 733.359 367.983 733.453 367.86 733.84 367.319 734.311 366.87 734.835 366.472 734.207 366.441 733.589 366.349 732.992 366.155 732.794 366.094 732.626 366.002 732.438 365.921L732.438 365.921 732.438 365.921C732.04 365.767 731.684 365.584 731.339 365.369 731.328 365.359 731.318 365.349 731.307 365.349 730.983 365.134 730.669 364.91 730.375 364.644 730.292 364.573 730.229 364.491 730.145 364.41 729.946 364.205 729.716 364.001 729.538 363.766 729.266 363.44 729.025 363.082 728.837 362.694 727.968 361.04 727.8 359.141 728.397 357.375 729.339 354.506 732.092 352.566 735.191 352.566 735.484 352.566 735.808 352.597 736.102 352.628 736.541 352.689 736.981 352.771 737.41 352.903 738.059 353.107 738.656 353.434 739.21 353.802 739.022 353.21 738.917 352.597 738.917 351.954 738.917 350.402 739.451 348.973 740.331 347.809 740.351 347.798 740.372 347.788 740.372 347.768 740.624 347.451 740.896 347.155 741.189 346.88 741.241 346.829 741.325 346.788 741.377 346.726 741.639 346.512 741.922 346.287 742.204 346.104 742.351 346.022 742.487 345.961 742.613 345.879 742.864 345.757 743.094 345.614 743.366 345.512 743.597 345.409 743.837 345.358 744.089 345.287 744.266 345.236 744.465 345.164 744.643 345.124 745.104 345.032 745.575 344.981 746.057 344.981 746.528 344.981 747.009 345.032 747.47 345.124 747.669 345.164 747.857 345.236 748.056 345.297 748.297 345.369 748.537 345.409 748.768 345.512 749.04 345.624 749.281 345.767 749.542 345.91 749.668 345.981 749.804 346.042 749.94 346.114 750.244 346.318 750.516 346.533 750.788 346.778 750.84 346.829 750.903 346.859 750.956 346.9 751.249 347.186 751.531 347.502 751.793 347.829 751.793 347.839 751.803 347.85 751.803 347.85 752.589 348.891 753.07 350.147 753.164 351.515L753.164 351.515 753.164 351.515C753.164 351.668 753.206 351.801 753.206 351.954 753.206 352.628 753.07 353.281 752.871 353.904 753.416 353.557 753.97 353.261 754.598 353.067 755.028 352.924 755.478 352.842 755.928 352.791 756.221 352.75 756.514 352.72 756.797 352.72 759.895 352.72 762.638 354.659 763.601 357.538 764.187 359.294 764.041 361.183 763.161 362.847ZM765.537 356.916C764.313 353.21 760.806 350.718 756.797 350.718 756.263 350.718 755.719 350.79 755.164 350.882 754.63 346.451 750.746 343 746.057 343 741.419 343 737.567 346.39 736.97 350.759 736.374 350.647 735.808 350.565 735.191 350.565 731.202 350.565 727.685 353.056 726.46 356.762 725.696 359.039 725.885 361.469 727.015 363.603 727.936 365.369 729.402 366.727 731.223 367.564 728.962 371.475 730.03 376.498 733.83 379.203 735.4 380.316 737.274 380.918 739.231 380.918 741.744 380.918 744.13 379.887 745.847 378.141 747.595 379.959 750.024 381 752.589 381 754.546 381 756.409 380.418 757.99 379.295 759.979 377.886 761.267 375.814 761.654 373.455 761.978 371.475 761.581 369.514 760.628 367.789 762.491 366.952 764.041 365.573 764.993 363.756 766.103 361.612 766.312 359.192 765.537 356.916Z" fill="#00A859" fill-rule="evenodd"/><path d="M748 350.549C748 349.694 747.328 349 746.5 349 745.672 349 745 349.694 745 350.549 745 351.061 745.259 351.488 745.621 351.777L745.621 360 747.203 360 747.203 351.883C747.679 351.627 748 351.136 748 350.549Z" fill="#00A859" fill-rule="evenodd"/><path d="M742.534 363 743 361.542 735.823 359.18C735.723 358.677 735.396 358.235 734.879 358.074 734.125 357.822 733.311 358.235 733.073 358.999 732.825 359.773 733.232 360.587 733.996 360.828 734.433 360.979 734.889 360.869 735.267 360.617L742.534 363Z" fill="#00A859" fill-rule="evenodd"/><path d="M743.646 365 738.778 371.824C738.221 371.757 737.654 371.957 737.305 372.447 736.781 373.169 736.955 374.169 737.654 374.692 738.363 375.214 739.357 375.058 739.859 374.336 740.164 373.914 740.208 373.38 740.055 372.924L745 366 743.646 365Z" fill="#00A859" fill-rule="evenodd"/><path d="M753.408 371.85 748.377 365 747 365.99 751.953 372.74C751.698 373.246 751.72 373.862 752.087 374.356 752.598 375.049 753.619 375.214 754.352 374.697 755.052 374.181 755.219 373.191 754.685 372.476 754.386 372.059 753.908 371.85 753.408 371.85Z" fill="#00A859" fill-rule="evenodd"/><path d="M759.92 359.038C759.66 358.241 758.758 357.817 757.932 358.076 757.443 358.231 757.117 358.593 756.965 359.027L749 361.49 749.511 363 757.356 360.569C757.769 360.931 758.345 361.096 758.931 360.921 759.746 360.672 760.192 359.824 759.92 359.038Z" fill="#00A859" fill-rule="evenodd"/><path d="M743.908 355.515C743.667 355.067 743.069 354.873 742.574 355.087 742.08 355.291 741.862 355.82 742.092 356.258 742.229 356.522 742.505 356.685 742.804 356.736L745.034 361 746 360.603 743.781 356.4C744 356.146 744.046 355.81 743.908 355.515Z" fill="#00A859" fill-rule="evenodd"/><path d="M744 362.946 743.884 362 739.507 362.572C739.343 362.312 739.052 362.156 738.742 362.197 738.278 362.26 737.949 362.707 738.007 363.205 738.065 363.694 738.481 364.047 738.936 363.995 739.217 363.953 739.43 363.766 739.556 363.527L744 362.946Z" fill="#00A859" fill-rule="evenodd"/><path d="M745.243 364 744.512 369.081C744.259 369.195 744.057 369.456 744.016 369.82 743.931 370.354 744.2 370.877 744.587 370.979 744.982 371.093 745.369 370.729 745.445 370.206 745.495 369.888 745.411 369.581 745.26 369.354L746 364.193 745.243 364Z" fill="#00A859" fill-rule="evenodd"/><path d="M751.916 365.311 748.385 363 748 363.825 751.487 366.105C751.487 366.425 751.609 366.724 751.872 366.889 752.231 367.126 752.695 366.971 752.906 366.538 753.107 366.105 752.976 365.569 752.608 365.321 752.389 365.177 752.135 365.187 751.916 365.311Z" fill="#00A859" fill-rule="evenodd"/><path d="M752.728 357.288C752.35 356.922 751.689 356.901 751.275 357.246 751.051 357.445 750.945 357.727 750.98 357.998L747 361.3 747.732 362 751.665 358.751C752.019 358.855 752.397 358.803 752.669 358.573 753.094 358.228 753.106 357.664 752.728 357.288Z" fill="#00A859" fill-rule="evenodd"/><path d="M742.107 358.176C741.828 357.908 741.396 357.951 741.155 358.272 740.915 358.583 740.963 359.044 741.232 359.322 741.415 359.483 741.626 359.515 741.838 359.461L744.548 362 745 361.4 742.318 358.893C742.366 358.636 742.299 358.358 742.107 358.176Z" fill="#00A859" fill-rule="evenodd"/><path d="M745 363.781 744.567 363 741.149 365.406C740.905 365.257 740.617 365.245 740.361 365.418 739.995 365.666 739.895 366.187 740.117 366.596 740.35 367.006 740.816 367.117 741.182 366.869 741.405 366.72 741.515 366.472 741.538 366.212L745 363.781Z" fill="#00A859" fill-rule="evenodd"/><path d="M746 364.183 746.863 367.786C746.677 367.948 746.588 368.203 746.647 368.467 746.745 368.844 747.108 369.078 747.471 368.976 747.844 368.885 748.069 368.508 747.981 368.121 747.922 367.898 747.765 367.735 747.569 367.653L746.686 364 746 364.183Z" fill="#00A859" fill-rule="evenodd"/><path d="M751.775 363.187 748.051 363 748 363.524 751.673 363.711C751.775 363.869 751.987 363.984 752.25 363.999 752.645 364.02 752.969 363.812 752.999 363.539 753.019 363.266 752.736 363.022 752.351 363.007 752.119 362.993 751.926 363.065 751.775 363.187Z" fill="#00A859" fill-rule="evenodd"/><path d="M748.516 357.05C748.11 356.903 747.659 357.092 747.5 357.461 747.388 357.682 747.422 357.914 747.568 358.103L746 361.726 746.767 362 748.29 358.451C748.584 358.419 748.832 358.261 748.945 358.009 749.103 357.629 748.911 357.208 748.516 357.05Z" fill="#00A859" fill-rule="evenodd"/><path d="M750 363.505C750 365.435 748.433 367 746.5 367 744.557 367 743 365.435 743 363.505 743 361.565 744.557 360 746.5 360 748.433 360 750 361.565 750 363.505Z" fill="#00A859" fill-rule="evenodd"/><path d="M408.4 227.64 407.858 229.102C406.608 228.56 405.555 228.162 404.7 227.916L405.232 226.464C406.18 226.567 407.243 226.965 408.4 227.64ZM403.637 230.83C404.231 231.689 404.805 232.548 405.388 233.397L403.533 234.154C403.054 233.162 402.376 232.139 401.542 231.086 402.47 230.442 403.064 230.115 403.293 230.084 403.533 230.176 403.658 230.421 403.637 230.83ZM401.761 235.585 400.771 234.839 399.093 236.955 400.073 237.712 401.761 235.585ZM404.21 235.288 400.219 240.299 396.675 237.599 400.667 232.579 404.21 235.288ZM414.747 234.368 417.613 237.507C418.374 238.397 418.01 239.982 416.54 242.252 414.977 244.47 412.538 247.057 409.255 250.002L407.869 248.959C410.37 247.139 412.486 245.156 414.237 242.967 415.894 240.728 416.467 239.215 415.956 238.397L414.945 237.303 404.659 250.217 405.284 251.014 403.981 251.863 399.875 247.477 410.005 234.767 408.817 233.867 398.249 247.16 396.654 245.953 408.484 231.117 412.788 234.43 402.22 247.722 403.252 248.816 414.747 234.368ZM398.593 239.982 398.051 241.434C396.79 240.881 395.737 240.493 394.883 240.248L395.404 238.785C396.269 239.041 397.332 239.43 398.593 239.982ZM405.357 224.695 404.481 226.198 403.7 225.595 402.814 227.098 407.723 230.861 406.503 232.405 401.793 228.796 400.302 231.055 398.77 230.196 399.645 228.704C399.593 228.243 399.583 227.712 399.635 227.129 398.332 227.18 397.05 227.323 395.768 227.599L395.404 226.076 396.258 225.8C395.779 224.808 395.299 223.714 394.789 222.497 395.789 222.129 396.435 222.006 396.686 222.088 396.811 222.18 396.842 222.415 396.769 222.773 397.155 223.888 397.519 224.89 397.874 225.779 398.332 225.728 398.791 225.677 399.249 225.616 399.093 224.235 398.718 223.121 398.134 222.262 399.177 222.027 399.812 221.945 400.052 222.037 400.302 222.119 400.344 222.405 400.167 222.896 400.438 224.133 400.708 225.38 400.979 226.628L401.855 225.125C401.376 224.951 401.052 224.808 400.927 224.716L401.105 223.295C402.564 223.581 403.981 224.051 405.357 224.695ZM399.677 231.832 395.695 236.843 394.518 235.943 398.509 230.933 399.677 231.832ZM396.154 248.98C398.77 251.791 400.969 254.839 402.803 258.1L401.136 259C399.52 255.483 397.175 252.333 394.101 249.573 394.935 248.663 395.497 248.223 395.789 248.243 396.029 248.213 396.154 248.458 396.154 248.98ZM397.728 230.319 393.736 235.329 392.558 234.44 396.54 229.419 397.728 230.319ZM393.83 243.162C394.507 243.888 395.091 244.757 395.581 245.749L394.059 246.444C393.715 245.554 392.996 244.481 391.881 243.223 392.704 242.722 393.236 242.456 393.476 242.425 393.715 242.507 393.84 242.763 393.83 243.162ZM396.018 228.09 391.099 234.266 389.932 233.356 394.841 227.19 396.018 228.09ZM393.402 227.016 389.411 232.027 388.243 231.127 392.225 226.117 393.402 227.016ZM391.287 245.554 391.506 247.272C389.65 247.497 388.077 247.753 386.805 248.019L386.388 246.158C387.795 245.984 389.421 245.789 391.287 245.554ZM395.55 237.027 394.966 238.141 394.038 237.742 393.163 239.245 398.072 242.998 396.842 244.542 391.923 240.779 390.63 243.203 389.109 242.344 389.828 241.025C389.776 240.575 389.765 240.053 389.817 239.47 388.515 239.511 387.305 239.716 386.18 240.084L385.284 238.796 386.451 238.131C386.076 237.017 385.575 235.912 384.971 234.828 385.992 234.47 386.628 234.338 386.878 234.419 387.014 234.522 387.034 234.747 386.972 235.104 387.347 236.219 387.702 237.221 388.035 238.111 388.515 238.059 388.983 237.998 389.442 237.947 389.275 236.577 388.9 235.462 388.316 234.593 389.348 234.358 389.963 234.307 390.161 234.46 390.359 234.614 390.422 234.869 390.349 235.227 390.62 236.464 390.891 237.712 391.172 238.949L392.204 237.262 391.266 236.853 391.599 235.247C392.819 235.554 394.132 236.158 395.55 237.027ZM385.659 240.319 385.878 242.037C383.908 242.385 382.417 242.794 381.406 243.264L381 241.403C382.251 240.902 383.804 240.544 385.659 240.319Z" fill="#00A859" fill-rule="evenodd"/><path d="M458.981 201.889 457.47 199.63 451.374 203.541 452.896 205.8 458.981 201.889ZM463 204.291 461.321 205.368 459.957 203.326 453.872 207.237 455.246 209.29 453.567 210.357 448.615 202.987 458.027 196.91 463 204.291ZM447.524 196.028 437.692 202.371C438.427 202.884 439.319 203.48 440.389 204.168L447.922 199.302C448.038 198.265 447.891 197.167 447.524 196.028ZM450.336 192.168 449.245 190.526 432.478 201.324 433.58 202.967 450.336 192.168ZM458.037 195.145 440.232 206.611 440.987 208.181 447.272 204.137 450.514 209.392C450.839 210.162 450.672 211.045 450.052 212.041 449.37 212.964 447.996 213.847 445.96 214.679L444.649 213.17C445.95 212.718 447.01 212.236 447.86 211.692 448.626 211.199 448.825 210.583 448.426 209.854L446.695 206.857 441.879 209.957C443.065 212.913 442.498 215.921 440.148 219 439.728 218.682 439.13 218.487 438.28 218.446 440.337 215.551 440.977 213.088 440.211 211.024L436.014 213.734 434.902 212.092 439.308 209.259C439.266 208.9 439.025 208.376 438.553 207.688L433.527 210.932 432.436 209.29 438.92 205.102C437.63 204.363 436.664 203.829 436.014 203.459L433.065 205.348 429.897 200.626 449.612 187.939 452.77 192.661 449.213 194.95C449.433 196.182 449.58 197.27 449.612 198.224L456.946 193.502 458.037 195.145ZM449.496 182.427 437.965 189.848 438.931 191.285 447.944 185.486 448.919 186.923 428.795 199.867 427.819 198.44 437.262 192.373 436.297 190.926 424.986 198.224 424 196.777 435.321 189.499 434.356 188.062C435.552 187.292 436.234 186.964 436.391 187.046 436.538 187.149 436.622 187.395 436.591 187.805L437.01 188.411 448.531 181 449.496 182.427Z" fill="#00A859" fill-rule="evenodd"/><path d="M500.563 169.123 492.134 171.523C493.557 173.695 494.513 175.315 494.971 176.386L500.593 174.786C500.776 173.019 500.766 171.128 500.563 169.123ZM508.626 161.673 495.987 165.268 496.76 168.146 508.707 164.748 513.974 184.137C514.126 184.958 513.608 185.696 512.449 186.381 511.198 186.984 509.327 187.431 506.887 187.701L506.419 186.028C507.955 186.101 509.337 185.924 510.568 185.488 511.737 185.155 512.225 184.459 512.022 183.399L507.578 167.128 502.434 168.593C502.454 171.159 502.464 173.05 502.464 174.256L506.918 172.988 507.436 174.9 499.241 177.238 500.278 181.072 508.941 178.599 509.46 180.511 500.797 182.984 502.627 189.686 500.746 190.215 498.946 183.514 490.73 185.851 490.212 183.94 498.397 181.602 497.35 177.768 489.632 179.97 489.124 178.048 493.333 176.853C492.286 174.91 491.361 173.289 490.497 171.98L485.809 173.321 491.015 192.47 489.155 193 483.41 171.939 494.889 168.676 494.106 165.798 481.458 169.403 481 167.731 493.659 164.135 493.069 161.974C494.472 161.579 495.265 161.434 495.469 161.548 495.601 161.683 495.499 161.974 495.194 162.4L495.53 163.595 508.168 160 508.626 161.673Z" fill="#00A859" fill-rule="evenodd"/><path d="M567.87 159.107 567.934 156.886 561.579 156.711 561.515 158.922 567.87 159.107ZM567.764 162.777 567.817 160.814 561.462 160.639 561.408 162.613 567.764 162.777ZM559.726 158.881 559.78 156.67 553.424 156.496 553.36 158.706 559.726 158.881ZM559.63 162.561 559.673 160.598 553.318 160.433 553.265 162.397 559.63 162.561ZM569.02 172.164 546.888 171.568 546.941 169.604 569.073 170.19 569.02 172.164ZM551.327 158.655 551.391 156.444 545.291 156.28 545.216 158.49 551.327 158.655ZM551.231 162.345 551.284 160.372 545.174 160.207 545.11 162.181 551.231 162.345ZM570.808 181.057C570.276 181.54 570.01 182.188 569.989 183 566.348 182.578 563.399 181.807 561.132 180.676 558.875 179.556 556.724 177.808 554.659 175.464L550.603 175.351 550.475 179.782C552.679 179.515 554.308 179.237 555.34 178.929L555.798 180.409C553.403 181.334 549.815 181.982 545.057 182.342L544.599 180.604C545.781 180.471 547.143 180.265 548.676 179.977L548.804 175.31 545.014 175.207 545.057 173.243 571 173.932 570.947 175.896 556.969 175.526C558.119 176.544 559.439 177.561 560.951 178.589 562.654 177.973 564.474 177.119 566.369 176.029 567.285 176.945 567.647 177.53 567.466 177.767 567.37 178.014 566.987 178.168 566.305 178.23 564.932 178.692 563.814 179.155 562.952 179.628 564.804 180.317 567.413 180.81 570.808 181.057ZM569.744 164.803 543.023 164.093 543.3 154.511 551.433 154.717 551.487 153C553.094 153.041 553.946 153.144 554.01 153.319 554.106 153.483 553.924 153.73 553.499 154.038L553.477 154.779 559.833 154.943 559.875 153.226C561.579 153.278 562.43 153.38 562.42 153.545 562.505 153.709 562.249 153.946 561.643 154.254L561.632 154.995 570.01 155.21 569.744 164.803ZM570.649 168.514 544.961 167.825C544.876 170.447 544.641 173.027 544.226 175.557 543.822 178.086 542.981 180.234 541.746 182.013 541.256 181.334 540.671 180.995 540 180.975 541.331 179.042 542.193 176.893 542.598 174.528 542.917 172.164 543.13 169.254 543.226 165.82L570.702 166.55 570.649 168.514Z" fill="#00A859" fill-rule="evenodd"/><path d="M625.542 179.96 628.526 170.831 618.608 167.792 615.614 176.921 625.542 179.96ZM621.858 191.194 624.926 181.839 614.998 178.789 611.94 188.155 621.858 191.194ZM613.926 176.397 616.909 167.268 606.748 164.156 603.753 173.285 613.926 176.397ZM610.241 187.641 613.299 178.266 603.148 175.154 600.079 184.519 610.241 187.641ZM622.41 196 620.488 195.415 621.316 192.837 599.538 186.152 598.699 188.73 597 188.216 605.59 162 631 169.784 622.41 196Z" fill="#00A859" fill-rule="evenodd"/><path d="M684.302 203.87C681.282 204.965 678.325 205.833 675.461 206.432L674.961 204.562C677.96 204.066 681.001 203.064 684.083 201.597 684.708 202.733 685.01 203.457 685 203.756 684.927 204.118 684.708 204.149 684.302 203.87ZM674.451 220.256C673.482 220.174 672.681 220.442 672.066 221 669.9 216.65 669.484 210.11 670.837 201.369L661.767 214.067C661.038 215.08 660.091 215.307 658.841 214.749 657.571 214.243 655.748 212.673 653.384 209.997L654.592 208.726C656.508 211.185 657.883 212.6 658.727 212.993 659.685 213.365 660.518 212.983 661.215 211.867L675.607 191.699C676.804 192.443 677.356 192.887 677.252 193.011 677.231 193.197 676.961 193.362 676.45 193.507L674.295 196.534C673.055 198.394 672.337 201.824 672.139 206.825 671.848 211.774 672.629 216.247 674.451 220.256ZM669.505 194.674C665.245 200.367 659.049 203.787 650.906 204.924 650.916 204.335 650.604 203.612 650 202.775 656.821 202.33 662.496 199.654 667.016 194.747L659.695 189.612 660.851 188 669.39 193.993 669.505 194.674Z" fill="#00A859" fill-rule="evenodd"/><path d="M706.044 254.89 705.02 253.485 722.391 241.581C723.299 242.872 723.689 243.544 723.563 243.647 723.415 243.74 723.162 243.668 722.782 243.42L706.044 254.89ZM706.973 262.692C706.287 263.157 705.421 263.095 704.387 262.506 703.374 261.793 702.086 260.006 700.546 257.143L702.002 256.141C702.836 258.187 703.575 259.582 704.229 260.347 704.883 261.111 705.548 261.246 706.223 260.781L727.753 246.055C728.649 247.337 729.082 248.07 728.987 248.225 728.882 248.38 728.597 248.391 728.069 248.246L706.973 262.692ZM706.667 249.331C706.012 248.969 705.379 248.814 704.778 248.825 705.875 246.055 706.909 243.038 707.87 239.772L694.003 249.259 693 247.853 706.012 238.915C702.171 239.555 698.245 239.524 694.256 238.832 694.625 238.191 694.847 237.52 694.974 236.838 698.921 237.747 703.458 237.768 708.566 236.879L704.377 231.009 706.023 229.873 710.36 235.949 714.698 232.983C712.978 231.144 711.637 229.552 710.677 228.199L711.975 227C715.31 231.361 718.508 234.699 721.589 237.003 721.019 238.212 720.608 238.791 720.365 238.739 720.186 238.78 719.975 238.625 719.732 238.284 718.297 236.858 717.02 235.505 715.922 234.254L711.384 237.365 715.574 243.244 713.917 244.371 709.864 238.698C708.967 242.335 707.912 245.869 706.667 249.331Z" fill="#00A859" fill-rule="evenodd"/><path d="M746.518 299.565C746.539 298.008 746.801 296.121 747.313 293.884 745.996 293.09 744.731 291.852 743.476 290.182L746.518 299.565ZM749.017 308.876C748.421 308.639 747.909 308.536 747.491 308.587 747.146 308.608 746.926 308.67 746.874 308.773 746.654 306.432 746.529 304.442 746.518 302.803L746.508 300.349 744.846 300.874 741.281 289.842 742.703 289.378C741.135 287.295 739.964 285.542 739.169 284.15L737.977 282.067C738.657 281.778 739.159 281.541 739.441 281.345 739.723 281.087 739.807 280.974 739.734 281.005 741.26 284.14 742.859 286.614 744.501 288.429 746.132 290.244 747.982 291.862 749.999 293.296 750.01 294.677 749.874 295.451 749.581 295.636 749.362 295.781 749.08 295.575 748.724 294.997 748.212 298.523 748.118 301.658 748.484 304.39 748.766 307.154 748.933 308.639 749.017 308.876ZM738.762 307.195 742.818 305.906 740.068 297.451 736.023 298.74 736.943 301.555 737.423 300.627C738.939 301.524 740.267 302.143 741.438 302.462 741.072 303.524 740.737 304.143 740.455 304.329 740.141 304.432 739.901 304.236 739.755 303.762 738.96 303.504 738.134 303.071 737.235 302.493L738.762 307.195ZM735.416 296.853 739.452 295.585 736.66 286.893 732.604 288.171 734.12 292.863C734.988 291.729 735.719 290.728 736.305 289.852L737.706 290.966C737.005 292.038 736.263 293.224 735.437 294.512L734.35 293.564 735.416 296.853ZM737.465 309.67 730.095 286.882 737.946 284.418 745.316 307.195 737.465 309.67ZM731.088 307.793 733.231 307.123 728.13 291.388 725.997 292.059 731.088 307.793ZM727.273 308.989 729.405 308.319 724.325 292.584 722.182 293.265 727.273 308.989ZM724.314 312 723.697 310.123 725.61 309.525 720.519 293.791 718.617 294.378 718 292.502 729.196 288.975 735.5 308.474 724.314 312Z" fill="#00A859" fill-rule="evenodd"/><path d="M371.234 423.352 371.509 424.91C370.123 425.116 368.917 424.969 367.911 424.469 366.895 423.96 366.133 423.156 365.615 422.059 365.086 420.903 364.885 419.874 365.064 418.953 365.234 418.033 365.699 417.19 366.472 416.436 367.255 415.681 368.186 415.074 369.287 414.633 370.493 414.153 371.626 413.937 372.726 414.016 373.806 414.075 374.758 414.408 375.594 414.995 376.42 415.593 377.065 416.367 377.499 417.298 377.996 418.366 378.124 419.375 377.88 420.335 377.626 421.295 377.055 422.128 376.123 422.843L375.118 421.599C375.848 421.021 376.293 420.413 376.43 419.796 376.61 419.169 376.515 418.503 376.187 417.788 375.816 416.974 375.266 416.387 374.578 415.995 373.901 415.622 373.16 415.466 372.335 415.534 371.52 415.593 370.737 415.779 369.985 416.083 368.991 416.475 368.207 416.945 367.604 417.504 367.001 418.062 366.652 418.689 366.546 419.394 366.451 420.09 366.557 420.766 366.853 421.412 367.223 422.196 367.784 422.764 368.525 423.117 369.276 423.47 370.176 423.548 371.234 423.352Z" fill="#00A859" fill-rule="evenodd"/><path d="M369 430.439 379.781 425 380.495 426.442 376.052 428.678 378.854 434.344 383.287 432.108 384 433.55 373.209 439 372.505 437.547 377.59 434.982 374.788 429.316 369.703 431.892 369 430.439Z" fill="#00A859" fill-rule="evenodd"/><path d="M376 442.63 386.259 437 387 438.36 376.741 444 376 442.63Z" fill="#00A859" fill-rule="evenodd"/><path d="M384.204 446.676 386.352 450.216 388.636 447.407C389.328 446.552 389.915 445.873 390.407 445.369 389.632 445.636 388.835 445.842 388.028 445.997L384.204 446.676ZM378 446.213 391.067 444 392 445.503 383.921 456 382.978 454.425 385.461 451.317 382.81 446.943 378.88 447.674 378 446.213Z" fill="#00A859" fill-rule="evenodd"/><path d="M388 455.881 389.333 455 392 459.13 390.645 460 388 455.881Z" fill="#00A859" fill-rule="evenodd"/><path d="M389 465.105 399.277 458 400.245 459.35 396.021 470.206 404.085 464.617 405 465.884 394.745 473 393.755 471.65 397.989 460.794 389.936 466.383 389 465.105Z" fill="#00A859" fill-rule="evenodd"/><path d="M402.871 474.615 405.346 477.885 407.119 474.74C407.654 473.781 408.109 473.031 408.505 472.469 407.812 472.833 407.109 473.146 406.366 473.417L402.871 474.615ZM397 474.99 408.97 471 410 472.375 403.842 484 402.743 482.552 404.653 479.094 401.594 475.063 398.03 476.344 397 474.99Z" fill="#00A859" fill-rule="evenodd"/><path d="M406 485.991 414.787 478 415.854 479.204 413.101 490.158 419.993 483.877 421 485.01 412.213 493 411.136 491.796 413.899 480.842 406.997 487.124 406 485.991Z" fill="#00A859" fill-rule="evenodd"/><path d="M420 500.879 427.907 492 429 493.122 421.084 502 420 500.879Z" fill="#00A859" fill-rule="evenodd"/><path d="M429.663 501.053 432.284 503.285C432.829 503.751 433.332 504.066 433.733 504.228 434.144 504.381 434.545 504.401 434.925 504.289 435.316 504.178 435.635 503.975 435.871 503.691 436.251 503.254 436.426 502.767 436.323 502.219 436.251 501.672 435.881 501.114 435.213 500.535L432.305 498.039 429.663 501.053ZM424 505.091 431.955 496 436.035 499.49C436.858 500.18 437.413 500.799 437.701 501.327 437.978 501.844 438.06 502.433 437.957 503.062 437.855 503.691 437.577 504.259 437.145 504.756 436.58 505.405 435.881 505.76 435.08 505.841 434.268 505.923 433.374 505.649 432.387 505.02 432.582 505.446 432.695 505.801 432.736 506.095 432.798 506.714 432.777 507.414 432.685 508.165L432.109 512 430.578 510.701 431.03 507.769C431.143 506.917 431.215 506.258 431.236 505.771 431.266 505.283 431.236 504.898 431.153 504.624 431.071 504.36 430.958 504.127 430.804 503.914 430.691 503.762 430.475 503.569 430.167 503.295L428.759 502.088 425.233 506.126 424 505.091Z" fill="#00A859" fill-rule="evenodd"/><path d="M440.431 509.215 443.251 511.262C443.857 511.689 444.369 511.975 444.797 512.097 445.225 512.219 445.633 512.219 446.008 512.076 446.385 511.934 446.698 511.71 446.938 511.404 447.283 510.946 447.398 510.447 447.283 509.907 447.157 509.357 446.74 508.827 446.008 508.288L442.875 506.016 440.431 509.215ZM435 513.655 442.384 504 446.76 507.178C447.659 507.829 448.265 508.4 448.588 508.909 448.912 509.408 449.048 509.989 448.985 510.63 448.933 511.262 448.703 511.852 448.296 512.382 447.763 513.074 447.084 513.492 446.28 513.625 445.465 513.767 444.536 513.553 443.491 512.993 443.711 513.4 443.857 513.757 443.92 514.042 444.024 514.663 444.066 515.356 444.014 516.12L443.742 520 442.081 518.798 442.301 515.845C442.363 514.979 442.395 514.307 442.384 513.818 442.363 513.339 442.301 512.962 442.207 512.688 442.102 512.423 441.966 512.199 441.799 512.005 441.674 511.863 441.444 511.669 441.11 511.425L439.596 510.325 436.295 514.612 435 513.655Z" fill="#00A859" fill-rule="evenodd"/><path d="M446 522.118 453.496 512 455 512.882 447.481 523 446 522.118Z" fill="#00A859" fill-rule="evenodd"/><path d="M458.544 524.013 459.262 522.875 463.645 525.275 461.408 528.9C460.426 529.034 459.485 529.034 458.604 528.9 457.754 528.756 456.924 528.488 456.175 528.068 455.173 527.513 454.373 526.805 453.786 525.926 453.209 525.065 452.956 524.118 453.006 523.114 453.057 522.1 453.391 521.115 453.978 520.15 454.565 519.203 455.314 518.428 456.256 517.835 457.187 517.243 458.169 516.965 459.212 517.004 460.244 517.042 461.277 517.338 462.309 517.902 463.058 518.314 463.656 518.801 464.121 519.366 464.587 519.93 464.88 520.504 464.961 521.106 465.053 521.699 464.982 522.378 464.759 523.133L463.322 522.77C463.473 522.196 463.514 521.699 463.463 521.288 463.413 520.867 463.22 520.465 462.886 520.054 462.583 519.652 462.147 519.308 461.621 519.012 461.003 518.667 460.416 518.457 459.849 518.39 459.283 518.323 458.746 518.352 458.29 518.495 457.835 518.629 457.42 518.83 457.045 519.107 456.418 519.557 455.881 520.14 455.446 520.848 454.899 521.728 454.626 522.54 454.575 523.296 454.525 524.061 454.727 524.749 455.152 525.371 455.588 525.983 456.144 526.48 456.823 526.863 457.41 527.188 458.058 527.398 458.746 527.494 459.455 527.59 460.032 527.59 460.467 527.513L461.59 525.687 458.544 524.013Z" fill="#00A859" fill-rule="evenodd"/><path d="M468.301 529.009 472.005 530.815 472.322 527.203C472.414 526.093 472.527 525.2 472.649 524.526 472.158 525.169 471.636 525.771 471.043 526.352L468.301 529.009ZM463 532.019 472.445 523 474 523.758 473.212 537 471.565 536.191 471.882 532.226 467.328 530.005 464.545 532.766 463 532.019Z" fill="#00A859" fill-rule="evenodd"/><path d="M478 538.42 482.112 528.758 478.305 527.299 478.862 526 488 529.517 487.464 530.816 483.636 529.337 479.514 539 478 538.42Z" fill="#00A859" fill-rule="evenodd"/><path d="M487 542.477 490.621 531 492 531.533 488.388 543 487 542.477Z" fill="#00A859" fill-rule="evenodd"/><path d="M495.718 538.541C495.354 539.993 495.421 541.266 495.919 542.316 496.408 543.366 497.194 544.065 498.257 544.394 499.349 544.723 500.355 544.574 501.266 543.959 502.176 543.313 502.827 542.231 503.22 540.672 503.479 539.697 503.546 538.785 503.421 537.957 503.306 537.13 503.009 536.43 502.53 535.847 502.051 535.264 501.457 534.861 500.748 534.638 499.714 534.32 498.736 534.437 497.807 534.988 496.868 535.54 496.169 536.727 495.718 538.541ZM494.243 538.053C494.751 536.049 495.622 534.628 496.878 533.801 498.133 532.963 499.551 532.783 501.084 533.26 502.09 533.578 502.923 534.119 503.594 534.903 504.284 535.678 504.715 536.621 504.897 537.703 505.079 538.785 505.021 539.93 504.715 541.139 504.399 542.369 503.9 543.387 503.201 544.225 502.521 545.052 501.706 545.582 500.767 545.836 499.829 546.08 498.88 546.049 497.922 545.762 496.887 545.444 496.044 544.882 495.373 544.087 494.703 543.291 494.281 542.348 494.109 541.277 493.927 540.184 493.975 539.124 494.243 538.053Z" fill="#00A859" fill-rule="evenodd"/><path d="M507 548.128 509.377 536 511.049 536.314 515.571 547.083 517.454 537.558 519 537.851 516.623 550 514.961 549.666 510.418 538.896 508.546 548.432 507 548.128Z" fill="#00A859" fill-rule="evenodd"/><path d="M528.849 546.166 532.829 546.565 531.911 543.019C531.632 541.948 531.422 541.067 531.313 540.375 531.083 541.161 530.804 541.917 530.465 542.683L528.849 546.166ZM525 550.909 530.625 539 532.3 539.168 536 552 534.225 551.822 533.198 547.95 528.281 547.467 526.646 551.066 525 550.909Z" fill="#00A859" fill-rule="evenodd"/><path d="M539 547.93 540.567 547.841C540.62 548.419 540.791 548.909 541.036 549.292 541.313 549.664 541.718 549.978 542.272 550.222 542.848 550.467 543.487 550.605 544.202 550.624 544.852 550.634 545.406 550.565 545.896 550.409 546.397 550.242 546.76 550.017 547.005 549.723 547.261 549.429 547.388 549.096 547.399 548.733 547.41 548.38 547.303 548.057 547.09 547.773 546.866 547.498 546.504 547.263 545.982 547.067 545.641 546.93 544.894 546.724 543.743 546.43 542.603 546.146 541.793 545.882 541.334 545.646 540.748 545.333 540.311 544.961 540.034 544.529 539.746 544.088 539.618 543.608 539.64 543.069 539.65 542.491 539.853 541.952 540.226 541.443 540.609 540.943 541.142 540.58 541.835 540.335 542.549 540.09 543.328 539.983 544.17 540.002 545.108 540.022 545.939 540.188 546.632 540.482 547.335 540.776 547.868 541.208 548.231 541.756 548.604 542.305 548.796 542.913 548.796 543.598L547.197 543.657C547.122 542.922 546.856 542.364 546.376 541.982 545.886 541.59 545.171 541.394 544.202 541.354 543.189 541.325 542.453 541.482 541.984 541.805 541.494 542.138 541.27 542.54 541.249 543.01 541.238 543.432 541.377 543.785 541.697 544.059 542.016 544.333 542.848 544.627 544.18 544.951 545.545 545.274 546.461 545.539 546.962 545.764 547.676 546.097 548.199 546.518 548.529 546.989 548.87 547.479 549.019 548.037 548.998 548.655 548.987 549.272 548.785 549.85 548.38 550.389 547.985 550.918 547.41 551.32 546.674 551.604 545.96 551.888 545.15 552.026 544.244 551.996 543.093 551.967 542.144 551.79 541.377 551.457 540.62 551.134 540.034 550.654 539.618 550.027 539.203 549.399 539 548.704 539 547.93Z" fill="#00A859" fill-rule="evenodd"/><path d="M552 548.188 553.412 548.021C553.498 548.6 553.66 549.081 553.899 549.444 554.157 549.807 554.548 550.112 555.073 550.318 555.588 550.534 556.18 550.642 556.8 550.622 557.372 550.602 557.869 550.514 558.307 550.328 558.737 550.141 559.061 549.896 559.262 549.582 559.462 549.277 559.567 548.934 559.558 548.581 559.548 548.217 559.453 547.903 559.224 547.638 559.023 547.373 558.67 547.147 558.203 546.981 557.888 546.863 557.229 546.686 556.189 546.46 555.13 546.235 554.405 545.999 553.985 545.783 553.441 545.508 553.031 545.165 552.754 544.733 552.477 544.311 552.334 543.83 552.324 543.3 552.305 542.711 552.458 542.161 552.773 541.641 553.088 541.131 553.546 540.728 554.166 540.444 554.777 540.169 555.483 540.022 556.227 540.002 557.067 539.983 557.802 540.1 558.441 540.365 559.09 540.63 559.586 541.023 559.939 541.553 560.292 542.083 560.512 542.691 560.55 543.369L559.109 543.516C559.023 542.78 558.746 542.24 558.298 541.877 557.849 541.514 557.182 541.337 556.313 541.357 555.426 541.376 554.758 541.563 554.357 541.916 553.937 542.269 553.756 542.682 553.765 543.163 553.775 543.575 553.918 543.918 554.223 544.183 554.519 544.448 555.264 544.694 556.504 544.959 557.716 545.204 558.556 545.43 559.014 545.626 559.663 545.93 560.168 546.313 560.493 546.784 560.827 547.255 560.989 547.795 560.998 548.423 561.018 549.042 560.865 549.631 560.531 550.18 560.187 550.74 559.71 551.172 559.071 551.486 558.432 551.81 557.716 551.976 556.914 551.996 555.884 552.026 555.035 551.888 554.319 551.594 553.632 551.309 553.088 550.867 552.677 550.259 552.277 549.65 552.048 548.953 552 548.188Z" fill="#00A859" fill-rule="evenodd"/><path d="M565.754 546.113C565.902 547.621 566.42 548.768 567.309 549.554 568.198 550.34 569.267 550.68 570.474 550.552 571.712 550.435 572.707 549.894 573.416 548.938 574.125 547.982 574.411 546.698 574.263 545.094 574.157 544.075 573.903 543.204 573.479 542.482 573.067 541.76 572.506 541.218 571.786 540.868 571.098 540.507 570.336 540.379 569.511 540.453 568.347 540.57 567.383 541.08 566.622 541.961 565.849 542.853 565.563 544.234 565.754 546.113ZM564.06 546.252C563.838 544.191 564.23 542.503 565.235 541.218 566.23 539.933 567.616 539.211 569.363 539.031 570.506 538.924 571.585 539.094 572.569 539.561 573.532 540.007 574.326 540.708 574.898 541.653 575.48 542.588 575.829 543.682 575.956 544.935 576.083 546.198 575.935 547.367 575.522 548.407 575.12 549.458 574.453 550.297 573.575 550.903 572.696 551.508 571.712 551.869 570.622 551.965 569.458 552.081 568.389 551.911 567.394 551.434 566.42 550.956 565.648 550.244 565.076 549.299 564.494 548.375 564.166 547.356 564.06 546.252Z" fill="#00A859" fill-rule="evenodd"/><path d="M588.352 544.761 590 544.899C589.878 546.298 589.451 547.432 588.698 548.28 587.955 549.138 586.979 549.668 585.738 549.88 584.456 550.102 583.357 550.017 582.492 549.615 581.587 549.202 580.865 548.534 580.275 547.57 579.695 546.605 579.319 545.535 579.115 544.359 578.912 543.066 578.983 541.911 579.288 540.862 579.604 539.834 580.173 538.986 580.967 538.34 581.75 537.693 582.665 537.27 583.734 537.089 584.914 536.888 585.961 537.026 586.867 537.513 587.772 538.001 588.474 538.796 588.983 539.887L587.498 540.533C587.08 539.675 586.582 539.092 585.982 538.774 585.392 538.456 584.71 538.361 583.917 538.499 582.991 538.658 582.269 539.018 581.73 539.569 581.19 540.141 580.865 540.83 580.733 541.635 580.611 542.441 580.611 543.257 580.743 544.073 580.906 545.122 581.201 546.012 581.628 546.754 582.045 547.485 582.584 547.994 583.276 548.269 583.968 548.555 584.659 548.629 585.382 548.502 586.267 548.354 586.969 547.962 587.498 547.326 588.016 546.69 588.301 545.842 588.352 544.761Z" fill="#00A859" fill-rule="evenodd"/><path d="M594.464 548 592 536.333 593.536 536 596 547.667 594.464 548Z" fill="#00A859" fill-rule="evenodd"/><path d="M601.134 541.454 605.126 540.445 603.053 537.587C602.427 536.718 601.935 535.998 601.596 535.419 601.637 536.188 601.627 536.978 601.534 537.767L601.134 541.454ZM599 547 600.467 534.42 602.15 534 610 544.232 608.225 544.672 605.937 541.554 601.021 542.793 600.652 546.58 599 547Z" fill="#00A859" fill-rule="evenodd"/><path d="M614.778 543 611.412 532.227 607.449 533.504 607 532.064 616.551 529 617 530.451 613.026 531.718 616.359 542.502 614.778 543Z" fill="#00A859" fill-rule="evenodd"/><path d="M623.405 540 619 528.556 620.606 528 625 539.454 623.405 540Z" fill="#00A859" fill-rule="evenodd"/><path d="M627.409 531.713C628.045 533.007 628.938 533.87 630.087 534.311 631.214 534.762 632.386 534.762 633.569 534.311 634.786 533.87 635.611 533.125 636.024 532.076 636.448 531.046 636.326 529.84 635.656 528.458 635.232 527.595 634.707 526.899 634.038 526.369 633.402 525.85 632.665 525.526 631.851 525.418 631.047 525.301 630.232 525.389 629.429 525.693 628.279 526.115 627.465 526.82 626.985 527.82 626.494 528.811 626.639 530.115 627.409 531.713ZM625.746 532.311C624.898 530.546 624.775 528.958 625.367 527.546 625.958 526.134 627.119 525.115 628.837 524.477 629.953 524.056 631.069 523.918 632.208 524.046 633.335 524.183 634.328 524.585 635.232 525.252 636.102 525.909 636.806 526.781 637.319 527.85 637.832 528.929 638.055 529.997 637.988 531.027 637.888 532.066 637.497 532.988 636.806 533.762 636.114 534.547 635.232 535.125 634.161 535.527 633.022 535.949 631.895 536.096 630.746 535.939 629.619 535.792 628.614 535.39 627.744 534.713 626.862 534.056 626.204 533.252 625.746 532.311Z" fill="#00A859" fill-rule="evenodd"/><path d="M642.541 532 637 521.341 638.449 520.59 648.439 526.067 644.082 517.7 645.449 517 651 527.669 649.521 528.41 639.541 522.923 643.898 531.3 642.541 532Z" fill="#00A859" fill-rule="evenodd"/><path d="M662.707 520 657.018 511.212 653.776 513.369 653 512.19 660.807 507 661.563 508.189 658.311 510.346 664 519.133 662.707 520Z" fill="#00A859" fill-rule="evenodd"/><path d="M668.188 510.7 671.317 508.144 668.451 506.161C667.564 505.556 666.862 505.036 666.355 504.612 666.677 505.355 666.95 506.129 667.174 506.935L668.188 510.7ZM668.383 517 665 504.071 666.316 503 677 509.947 675.626 511.082 672.448 508.918 668.587 512.079 669.669 515.939 668.383 517Z" fill="#00A859" fill-rule="evenodd"/><path d="M679.767 508 672 498.994 673.213 498 681 506.996 679.767 508Z" fill="#00A859" fill-rule="evenodd"/><path d="M686.219 503 675 496.265 676.241 495.082 683.396 499.686C684.144 500.165 684.85 500.666 685.578 501.167 684.85 499.973 684.444 499.291 684.358 499.1L680.134 491.32 681.599 489.913 687.353 493.238C688.775 494.069 690.048 494.911 691.171 495.764 690.722 495.082 690.23 494.283 689.706 493.355L685.481 486.162 686.679 485 693 496.457 691.845 497.576 683.214 492.524C682.497 492.108 682.048 491.842 681.898 491.735 682.208 492.247 682.455 492.684 682.658 493.057L687.449 501.817 686.219 503Z" fill="#00A859" fill-rule="evenodd"/><path d="M694.448 486.985 697.046 483.836 693.808 482.565C692.834 482.179 692.037 481.835 691.456 481.543 691.909 482.179 692.332 482.867 692.716 483.597L694.448 486.985ZM695.846 493 690 481.324 691.092 480 703 484.295 701.858 485.692 698.296 484.326 695.107 488.225 696.928 491.697 695.846 493Z" fill="#00A859" fill-rule="evenodd"/><path d="M705.093 482 695 474.722 696.009 473.39 707.876 473.958 699.951 468.249 700.896 467 711 474.278 709.969 475.61 698.113 475.042 706.039 480.761 705.093 482Z" fill="#00A859" fill-rule="evenodd"/><path d="M713.209 471 712 469.808 712.791 468 714 469.205 713.209 471Z" fill="#00A859" fill-rule="evenodd"/><path d="M711.471 460.942 713.229 457.804C713.602 457.146 713.829 456.585 713.902 456.132 713.985 455.669 713.933 455.259 713.767 454.881 713.571 454.515 713.323 454.223 712.961 454.008 712.475 453.706 711.947 453.641 711.42 453.835 710.871 454.008 710.385 454.515 709.941 455.334L707.986 458.818 711.471 460.942ZM716.56 466 706 459.562 708.73 454.687C709.279 453.695 709.806 453.005 710.282 452.606 710.747 452.217 711.316 452.023 711.957 452.002 712.609 451.98 713.229 452.153 713.819 452.509 714.564 452.962 715.06 453.598 715.288 454.428 715.515 455.248 715.401 456.219 714.957 457.372 715.339 457.092 715.681 456.898 715.97 456.801 716.58 456.607 717.273 456.488 718.049 456.445L722 456.283 720.976 458.127 717.956 458.235C717.087 458.278 716.405 458.332 715.919 458.408 715.422 458.473 715.06 458.58 714.781 458.721 714.543 458.85 714.315 459.012 714.15 459.206 714.016 459.346 713.84 459.616 713.643 459.993L712.681 461.675 717.367 464.533 716.56 466Z" fill="#00A859" fill-rule="evenodd"/><path d="M723.964 454 722 452.978 723.009 451 725 452.022 723.964 454Z" fill="#00A859" fill-rule="evenodd"/><path d="M721.912 444.875C723.302 445.472 724.545 445.596 725.691 445.225 726.816 444.844 727.634 444.123 728.133 443.03 728.642 441.928 728.663 440.846 728.196 439.775 727.729 438.714 726.763 437.858 725.288 437.209 724.353 436.797 723.472 436.602 722.623 436.602 721.784 436.602 721.052 436.818 720.394 437.23 719.746 437.652 719.247 438.24 718.897 438.961 718.409 440.001 718.366 441.063 718.748 442.134 719.152 443.206 720.203 444.123 721.912 444.875ZM721.201 446.379C719.3 445.544 718.037 444.401 717.411 442.938 716.816 441.475 716.859 439.971 717.591 438.394 718.069 437.374 718.748 436.56 719.64 435.963 720.521 435.365 721.519 435.036 722.623 435.005 723.727 434.963 724.842 435.2 726.01 435.695 727.167 436.21 728.09 436.89 728.791 437.735 729.502 438.6 729.895 439.548 729.98 440.589 730.065 441.629 729.884 442.629 729.428 443.597 728.939 444.638 728.249 445.462 727.347 446.059 726.455 446.657 725.447 446.966 724.353 446.997 723.249 447.028 722.188 446.822 721.201 446.379Z" fill="#00A859" fill-rule="evenodd"/><path d="M732.449 434 731 433.439 731.561 432 733 432.561 732.449 434Z" fill="#00A859" fill-rule="evenodd"/><path d="M733.419 418.978 734.366 417.493C735.558 418.29 736.345 419.25 736.728 420.364 737.111 421.477 737.09 422.677 736.664 423.954 736.228 425.275 735.611 426.246 734.813 426.89 734.015 427.534 733.047 427.894 731.93 427.981 730.792 428.057 729.643 427.905 728.515 427.512 727.27 427.075 726.27 426.442 725.504 425.646 724.749 424.838 724.27 423.889 724.089 422.83 723.909 421.76 724.004 420.691 724.355 419.611 724.77 418.388 725.419 417.472 726.302 416.85 727.185 416.227 728.217 415.944 729.419 416.009L729.27 417.723C728.302 417.701 727.536 417.897 726.962 418.29 726.387 418.694 725.972 419.305 725.706 420.113 725.387 421.062 725.345 421.924 725.579 422.71 725.802 423.485 726.238 424.14 726.898 424.652 727.558 425.165 728.27 425.558 729.047 425.831 730.079 426.191 731.004 426.344 731.856 426.311 732.717 426.268 733.419 425.995 734.026 425.493 734.6 424.991 735.015 424.369 735.26 423.616 735.579 422.71 735.579 421.848 735.27 421.04 734.973 420.244 734.356 419.545 733.419 418.978Z" fill="#00A859" fill-rule="evenodd"/><path d="M378.456 287.205C377.689 287.787 377.077 288.172 376.652 288.348L376.382 287.704 374.163 293.246C374.692 294.172 375.148 295.056 375.511 295.929L378.456 287.205ZM390 282.463 379.39 309 377.782 308.355 382.667 296.127 381.06 295.471 377.274 304.945 375.666 304.3 379.431 294.816 377.824 294.172 374.536 304.383 372.731 304.185 374.816 298.331 373.343 295.326 370.937 301.326 369.101 300.577 376.849 281.194 378.695 281.932 377.025 286.092C377.336 285.77 378.083 285.125 379.265 284.179 380.5 283.336 381.568 282.556 382.47 281.849L383.404 283.555C382.418 284.241 381.537 284.865 380.769 285.447L378.55 292.331 380.168 292.986 383.953 283.513 385.571 284.158 381.796 293.631 383.414 294.276 388.382 281.808 390 282.463ZM376.465 276.754C378.093 277.586 379.659 278.584 381.184 279.718 380.697 280.061 380.157 280.466 379.597 280.965 378.871 280.134 377.834 279.364 376.517 278.657L367.379 301.513 371.538 303.177 370.812 305.028 365.025 302.709 375.449 276.619 376.465 276.754ZM370.647 280.581 369.506 280.123 362.951 296.511 364.102 296.979 370.647 280.581ZM373.001 279.385 365.087 299.236 360.462 297.374 368.375 277.523 373.001 279.385ZM365.378 273.645 360.762 285.187 362.162 285.749 366.124 275.818 367.971 276.556 359.393 298.03 357.537 297.291 361.416 287.6 360.036 287.038 355.608 298.113 354 297.468 358.418 286.383 356.8 285.728C357.246 284.594 357.589 283.971 357.817 283.867 358.024 283.773 358.263 283.908 358.449 284.262L359.155 284.543 363.77 273 365.378 273.645Z" fill="#00A859" fill-rule="evenodd"/></g></svg>