<svg width="441" height="132" xmlns="http://www.w3.org/2000/svg" xmlns:xlink="http://www.w3.org/1999/xlink" overflow="hidden"><defs><clipPath id="clip0"><path d="M277 159 718 159 718 291 277 291Z" fill-rule="evenodd" clip-rule="evenodd"/></clipPath></defs><g clip-path="url(#clip0)" transform="translate(-277 -159)"><rect x="278" y="159" width="424" height="129" fill="#43BE85"/><path d="M285 223.5C285 196.714 306.938 175 334 175 361.062 175 383 196.714 383 223.5 383 250.286 361.062 272 334 272 306.938 272 285 250.286 285 223.5Z" fill="#F2F2F2" fill-rule="evenodd"/><path d="M334.001 176.213C307.107 176.213 285.225 197.427 285.225 223.501 285.225 249.575 307.107 270.787 334.001 270.787 360.895 270.787 382.777 249.575 382.777 223.501 382.777 197.427 360.895 176.213 334.001 176.213ZM334.001 272C306.43 272 284 250.243 284 223.501 284 196.759 306.43 175 334.001 175 361.572 175 384 196.759 384 223.501 384 250.243 361.572 272 334.001 272Z" fill="#00A859" fill-rule="evenodd"/><path d="M334.001 187.196C313.169 187.196 296.219 203.483 296.219 223.5 296.219 243.517 313.169 259.802 334.001 259.802 354.833 259.802 371.781 243.517 371.781 223.5 371.781 203.483 354.833 187.196 334.001 187.196ZM334.001 261C312.494 261 295 244.177 295 223.5 295 202.821 312.494 186 334.001 186 355.506 186 373 202.821 373 223.5 373 244.177 355.506 261 334.001 261Z" fill="#00A859" fill-rule="evenodd"/><path d="M332.218 221.036 323.877 212.832C326.215 211.02 329.077 209.814 332.218 209.468L332.218 221.036ZM335.636 209.448C338.808 209.745 341.716 210.92 344.089 212.719L335.636 221.036 335.636 209.448ZM335.636 229.17 343.971 237.372C341.619 239.121 338.757 240.259 335.636 240.55L335.636 229.17ZM332.218 240.529C329.132 240.195 326.31 239.023 323.995 237.259L332.218 229.17 332.218 240.529ZM347.726 236.302 336.347 225.104 346.567 215.045C346.57 215.047 346.572 215.049 346.572 215.054L349 212.66C345.388 208.587 340.031 206 334.058 206 328.018 206 322.612 208.642 319 212.791L320.126 213.902 320.124 213.904 331.505 225.104 320.124 236.302 320.142 236.318 319.113 237.331C322.721 241.411 328.08 244 334.058 244 339.973 244 345.286 241.461 348.894 237.454L347.724 236.305 347.726 236.302Z" fill="#3E4095" fill-rule="evenodd"/><path d="M368.285 227.392C368.285 227.392 369.257 222.531 368.934 220.941 368.934 220.941 365.472 224.704 363.874 227.067 363.927 226.35 363.964 225.63 363.964 224.9 363.964 223.991 363.918 223.096 363.838 222.208 365.025 221.474 367.245 219.554 366.798 215.611 366.192 210.281 365.129 208.784 365.129 208.784 365.129 208.784 362.969 211.802 362.35 215.39 361.841 213.931 361.217 212.526 360.486 211.179 361.103 209.9 361.694 207.263 359.505 203.08 359.505 203.08 357.925 199.76 355.415 197.842 355.415 197.842 355.195 201.592 355.949 204.96 355.179 204.155 354.356 203.396 353.496 202.681 352.556 193.331 343.661 192 343.661 192 343.867 193.74 346.224 197.125 347.48 198.827 346.116 198.168 344.683 197.611 343.195 197.157 341.987 195.507 339.046 192.464 334 192.84 334 192.84 337.485 198.357 342.132 198.403 344.766 199.139 347.217 200.23 349.443 201.61 340.999 201.506 340.275 202.66 340.275 202.66 341.806 204.437 343.81 204.877 345.153 205.184 349.422 206.16 351.809 204.953 352.875 204.12 354.369 205.403 355.724 206.834 356.91 208.394 355.447 207.835 352.093 206.73 349.516 207.194 349.516 207.194 351.391 213.906 359.344 212.222 360.326 214.084 361.094 216.063 361.621 218.133 360.158 216.968 356.261 214.037 354.392 214.301 354.392 214.301 356.119 223.221 362.38 222.681 362.437 223.412 362.474 224.153 362.474 224.9 362.474 226.543 362.316 228.147 362.034 229.711 361.259 227.932 359.198 223.888 355.974 222.485 355.974 222.485 356.323 232.18 361.032 233.597 360.303 235.736 359.319 237.762 358.104 239.635 357.93 237.919 357.267 233.057 355.186 230.805 355.186 230.805 351.419 238.703 355.97 242.51 354.301 244.476 352.359 246.211 350.206 247.658 350.878 246.227 352.515 242.203 351.467 238.659 351.467 238.659 344.395 245.339 347.13 249.446 343.301 251.366 338.977 252.455 334.394 252.455L334.394 253.957C334.743 253.957 335.091 253.943 335.442 253.932L335.442 254.511C335.442 254.511 337.762 254.183 339.527 255.307 341.295 256.428 344.037 257.831 347.425 256.38 347.425 256.38 349.656 254.884 350.259 254.698 350.259 254.698 350.096 254.474 349.562 254.416 349.051 254.361 343.395 253.989 340.93 253.232 343.537 252.653 346.013 251.737 348.306 250.531 349.012 251.128 351.401 252.526 356.486 249.928 356.486 249.928 359.92 247.683 361.036 246.375 361.036 246.375 356.701 246.22 353.326 247.199 354.748 246.031 356.057 244.741 357.231 243.338 358.214 243.574 361.277 243.968 364.333 240.812 368.052 236.977 367.774 235.715 367.774 235.715 367.774 235.715 363.803 236.435 360.452 238.62 361.286 237.102 361.979 235.5 362.526 233.835 363.54 233.59 367.02 232.399 368.285 227.392Z" fill="#FFF118" fill-rule="evenodd"/><path d="M335.403 254.228C336.414 254.228 337.883 254.389 339.141 255.17 340.356 255.923 342.009 256.785 343.98 256.785 344.886 256.785 345.807 256.599 346.708 256.23 346.958 256.07 347.559 255.68 348.18 255.31 346.282 255.153 342.152 254.785 340.085 254.167L337.836 253.493 340.133 252.994C342.753 252.426 345.279 251.528 347.633 250.318L347.997 250.132 348.315 250.393C348.67 250.684 349.478 251.174 350.943 251.174 352.415 251.174 354.146 250.686 356.087 249.721 356.336 249.565 358.203 248.357 359.554 247.266 357.999 247.306 355.438 247.469 353.3 248.073L350.399 248.889 352.736 247.017C354.184 245.86 355.516 244.576 356.7 243.198L356.948 242.911 357.316 242.997C358.244 243.214 361.147 243.578 364.101 240.612 366.048 238.656 366.878 237.411 367.232 236.707 365.832 237.055 363.175 237.854 360.852 239.332L358.786 240.645 359.97 238.528C360.816 237.029 361.525 235.437 362.082 233.795L362.189 233.474 362.522 233.397C363.508 233.166 366.816 232.044 368.041 227.328 368.236 226.367 368.645 224.099 368.742 222.481 367.56 223.78 365.644 225.95 364.576 227.489L363.271 229.37 363.444 227.102C363.508 226.291 363.537 225.607 363.537 224.959 363.537 224.097 363.496 223.199 363.409 222.292L363.373 221.917 363.701 221.721C364.916 220.989 366.897 219.224 366.481 215.641 366.131 212.64 365.632 210.875 365.28 209.936 364.593 211.073 363.501 213.155 363.097 215.452L362.695 217.748 361.903 215.55C361.394 214.128 360.752 212.726 360.01 211.386L359.851 211.111 359.991 210.829C360.548 209.712 361.152 207.236 358.985 203.196 358.962 203.149 357.775 200.752 355.877 198.924 355.877 200.3 355.965 202.578 356.446 204.678L356.933 206.793 355.397 205.233C354.61 204.436 353.773 203.676 352.905 202.974L352.708 202.816 352.686 202.568C351.942 195.385 346.266 193.143 343.961 192.525 344.475 193.835 345.731 195.847 347.557 198.251L349.053 200.221 346.793 199.158C345.405 198.507 343.94 197.952 342.437 197.507L342.24 197.449 342.118 197.285C340.979 195.775 338.466 193.264 334.276 193.145 335.493 194.658 338.242 197.547 341.519 197.579L341.602 197.579 341.681 197.603C344.413 198.344 347.015 199.458 349.419 200.906L351.324 202.06 349.088 202.03C343.804 201.969 341.536 202.373 340.618 202.652 341.959 203.818 343.538 204.17 344.734 204.436L344.779 204.448C345.833 204.678 346.832 204.8 347.761 204.8 350.068 204.8 351.49 204.082 352.275 203.485L352.672 203.182 353.055 203.499C354.636 204.818 356.075 206.303 357.33 207.91L358.65 209.6 356.619 208.847C355.328 208.369 352.822 207.565 350.558 207.565 350.377 207.565 350.201 207.572 350.03 207.581 350.646 208.931 352.479 211.815 356.838 211.815 357.594 211.815 358.4 211.726 359.242 211.554L359.696 211.46 359.915 211.864C360.962 213.804 361.775 215.86 362.327 217.97L362.785 219.714 361.347 218.597C358.743 216.58 356.412 215.228 355.036 214.909 355.611 216.921 357.533 222.134 361.951 222.134 362.117 222.134 362.289 222.127 362.46 222.11L363.08 222.057 363.133 222.665C363.194 223.449 363.228 224.218 363.228 224.959 363.228 226.594 363.076 228.265 362.769 229.928L362.403 231.884 361.589 230.065C360.926 228.582 359.199 225.22 356.572 223.572 356.826 226.074 357.796 232.14 361.292 233.164L361.913 233.343 361.703 233.94C360.935 236.129 359.891 238.225 358.598 240.179L357.642 241.617 357.464 239.908C357.326 238.605 356.791 234.53 355.216 232.128 354.398 234.269 352.876 239.531 356.263 242.289L356.745 242.683 356.336 243.149C354.565 245.18 352.51 246.968 350.227 248.46L348.365 249.679 349.326 247.693C349.975 246.359 351.305 243.144 350.836 240.085 349.1 241.911 345.222 246.515 347.21 249.425L347.6 249.999 346.969 250.306C342.936 252.274 338.618 253.316 334.102 253.405L334.102 253.701C334.207 253.699 334.309 253.696 334.409 253.689L335.189 253.664 335.189 254.23C335.258 254.228 335.327 254.228 335.403 254.228ZM343.98 258C341.69 258 339.835 257.035 338.48 256.193 337.419 255.538 336.097 255.44 335.403 255.44 334.953 255.44 334.661 255.48 334.656 255.48L333.952 255.573 333.95 254.92C333.798 254.925 333.643 254.927 333.486 254.927L332.868 254.927 332.868 252.195 333.486 252.195C337.809 252.195 341.959 251.288 345.835 249.495 343.714 244.988 350.47 238.698 350.772 238.421L351.504 237.747 351.79 238.689C352.596 241.342 351.975 244.207 351.269 246.229 352.617 245.196 353.866 244.049 355 242.802 350.689 238.593 354.329 230.995 354.489 230.664L354.886 229.862 355.502 230.513C357.252 232.355 358.084 235.709 358.462 238.057 359.195 236.787 359.818 235.465 360.331 234.101 355.654 232.016 355.266 222.94 355.252 222.537L355.216 221.579 356.115 221.961C358.771 223.087 360.693 225.771 361.832 227.804 361.937 226.85 361.994 225.897 361.994 224.959 361.994 224.435 361.975 223.894 361.939 223.348 355.478 223.337 353.699 214.731 353.625 214.365L353.497 213.738 354.146 213.647C354.256 213.633 354.37 213.626 354.489 213.626 356.137 213.626 358.653 215.146 360.605 216.527 360.177 215.261 359.649 214.025 359.033 212.829 358.272 212.962 357.54 213.027 356.838 213.027 350.311 213.027 348.594 207.29 348.577 207.231L348.394 206.588 349.062 206.471C349.521 206.392 350.025 206.35 350.558 206.35 352.075 206.35 353.671 206.674 354.993 207.04 354.249 206.229 353.454 205.457 352.617 204.732 351.628 205.371 350.066 206.012 347.761 206.012 346.741 206.012 345.645 205.884 344.506 205.63L344.458 205.62C343.008 205.296 340.822 204.809 339.115 202.883L338.813 202.543 339.06 202.16C339.567 201.377 342.342 200.897 346.734 200.822 345.043 199.978 343.267 199.3 341.424 198.792 336.366 198.682 332.706 193.129 332.556 192.891L332 192.035 333.032 191.961C333.341 191.94 333.653 191.926 333.957 191.926 338.734 191.926 341.626 194.658 342.991 196.404 343.759 196.635 344.513 196.898 345.255 197.181 343.899 195.241 342.646 193.136 342.485 191.786L342.392 191 343.193 191.114C343.288 191.128 352.738 192.618 353.889 202.195 354.227 202.48 354.567 202.767 354.9 203.067 354.517 200.256 354.665 197.712 354.672 197.584L354.741 196.449 355.666 197.136C358.353 199.139 360.025 202.508 360.089 202.65 362.338 206.84 361.849 209.64 361.237 211.069 361.644 211.812 362.017 212.573 362.35 213.344 363.256 210.53 364.781 208.427 364.859 208.322L365.366 207.635 365.865 208.322C365.986 208.49 367.085 210.118 367.71 215.503 368.184 219.546 365.958 221.672 364.676 222.544 364.743 223.365 364.776 224.176 364.776 224.959 364.776 225.036 364.776 225.113 364.776 225.192 366.521 223.024 368.742 220.669 368.859 220.544L369.675 219.679 369.922 220.835C370.269 222.514 369.354 227.083 369.247 227.596 367.962 232.56 364.588 234.063 363.149 234.485 362.812 235.446 362.426 236.383 361.994 237.299 364.992 235.833 367.858 235.313 367.998 235.29L368.583 235.187 368.711 235.756C368.795 236.131 368.778 237.647 364.988 241.461 361.901 244.562 358.795 244.487 357.406 244.254 356.75 245.002 356.049 245.723 355.311 246.408 357.416 246.087 359.463 246.042 360.429 246.042 360.878 246.042 361.14 246.049 361.14 246.049L362.426 246.094 361.589 247.054C360.391 248.425 356.881 250.663 356.736 250.756L356.679 250.789C354.546 251.85 352.617 252.386 350.943 252.386 349.435 252.386 348.439 251.948 347.856 251.57 346.285 252.351 344.644 253.004 342.946 253.519 345.136 253.85 347.709 254.053 348.77 254.137 349.031 254.158 349.212 254.172 349.286 254.181 350.051 254.26 350.363 254.603 350.441 254.708L350.96 255.396 350.125 255.645C349.785 255.75 348.446 256.555 347.348 257.273L347.248 257.326C346.17 257.774 345.074 258 343.98 258Z" fill="#00A859" fill-rule="evenodd"/><path d="M334.556 253.231 334.556 252.347C331.092 252.347 327.764 251.729 324.693 250.604 325.03 248.946 325.272 244.168 318.461 239.817 318.461 239.817 317.25 243.666 320.953 248.923 318.694 247.703 316.622 246.187 314.794 244.432 319.106 240.53 314.017 232.025 314.017 232.025 311.139 234.486 311.991 239.722 312.523 241.983 311.016 240.15 309.742 238.127 308.748 235.956 313.932 234.574 311.911 224.585 311.911 224.585 309.238 224.817 307.879 230.141 307.417 232.449 306.734 230.187 306.341 227.81 306.273 225.352 312.057 225.386 313.656 216.083 313.656 216.083 310.338 216.335 307.286 220.243 306.44 221.416 306.694 219.268 307.194 217.183 307.931 215.197 313.442 215.866 317.679 209.058 317.679 209.058 314.822 208.391 311.143 210.335 309.829 211.113 310.898 209.236 312.194 207.491 313.678 205.91 314.655 206.643 316.518 207.562 319.24 206.875 323.447 205.812 325.19 203.627 325.19 203.627 325.19 203.627 322.933 201.759 316.852 203.018 318.574 201.678 320.47 200.525 322.512 199.602 328.459 199.308 331.016 193 331.016 193 324.681 193.505 322.465 196.81 321.786 198.268 319.992 199.09 318.301 200.076 316.737 201.206 317.679 199.792 320.392 195.518 320.442 193.176 320.442 193.176 308.887 199.789 312.606 204.831 311.386 206.123 310.286 207.523 309.33 209.009 310.1 204.882 309.391 200.734 309.391 200.734 308.011 201.56 305.368 206.754 305.368 206.754 303.239 211.699 305.766 214.09 306.497 214.653 305.898 216.28 305.439 217.972 305.138 219.71 302.794 213.923 301.101 213.368 301.101 213.368 301.101 213.368 299.838 214.727 300.62 220.275 301.27 224.912 303.894 225.345 304.74 225.361 304.794 227.389 305.06 229.384 305.533 231.324 301.551 226.736 299 227.004 299 227.004 302.738 238.525 306.734 236.692 307.283 236.375 307.954 237.844 308.743 239.263 309.66 240.618 304.871 238.083 302.241 239.05 302.241 239.05 308.258 247.488 312.825 245.701 313.6 245.312 315.1 246.773 316.728 248.055 318.456 249.159 317.227 248.988 312.573 248.49 310.291 250.326 310.291 250.326 319.419 256.303 323.701 251.819 325.892 252.671 328.178 253.263 330.531 253.578 328.708 254.034 323.967 255.191 322.425 255.284 322.425 255.284 322.545 255.698 323.145 256.171 323.746 256.643 326.089 258.59 328.612 257.823 331.134 257.055 331.106 254.872 335.55 254.34L336 253.159 334.556 253.231Z" fill="#FFF118" fill-rule="evenodd"/><path d="M323.582 256.117 323.597 256.126C324.112 256.537 325.687 257.785 327.438 257.785 327.792 257.785 328.133 257.733 328.468 257.633 329.343 257.367 329.872 256.901 330.485 256.364 331.443 255.522 332.52 254.577 335.035 254.174L334.022 254.223 334.022 253.297C330.748 253.229 327.542 252.627 324.482 251.508L323.988 251.326 324.09 250.819C324.425 249.189 324.539 245.081 318.877 241.109 318.768 242.476 318.944 245.356 321.44 248.897L322.932 251.015 320.633 249.777C318.329 248.531 316.196 246.975 314.298 245.154L313.831 244.706 314.31 244.274C317.544 241.342 314.867 235.315 313.797 233.241 311.819 235.706 312.587 240.192 313.043 242.114L313.653 244.692 311.959 242.634C310.404 240.738 309.095 238.65 308.074 236.427L307.771 235.779 308.473 235.592C312.379 234.552 311.652 227.638 311.325 225.48 309.735 226.245 308.53 229.623 307.901 232.76L307.415 235.179 306.703 232.816C305.989 230.456 305.595 227.995 305.526 225.506L305.507 224.878 306.148 224.883C310.402 224.883 312.234 219.133 312.782 216.912 310.592 217.531 308.316 219.793 306.815 221.879L305.424 223.81 305.697 221.459C305.956 219.273 306.471 217.118 307.23 215.051L307.396 214.596 307.885 214.657C308.117 214.685 308.352 214.699 308.58 214.699 312.281 214.699 315.347 211.163 316.554 209.546 316.493 209.544 316.429 209.541 316.362 209.541 313.899 209.541 311.121 211.025 310.041 211.664L308.048 212.842 309.187 210.845C310.286 208.919 311.617 207.118 313.152 205.487L313.532 205.081 313.978 205.415C314.644 205.916 315.762 206.509 317.326 206.509 317.878 206.509 318.462 206.434 319.053 206.283 321.772 205.597 323.423 204.417 324.19 203.74 323.573 203.479 322.455 203.152 320.723 203.152 319.573 203.152 318.296 203.297 316.929 203.579L314.367 204.111 316.419 202.511C318.206 201.118 320.166 199.936 322.249 198.991L322.356 198.942 322.474 198.935C326.619 198.732 329.051 195.322 330.012 193.619 324.781 194.37 322.913 197.206 322.337 198.454L322.242 198.657 322.035 198.753C320.277 199.553 318.6 200.528 317.053 201.65L314.298 203.644 316.168 200.827C316.87 199.777 318.894 196.621 319.575 194.314 317.463 195.695 313.133 198.853 312.478 201.902 312.279 202.849 312.454 203.684 313.024 204.456L313.323 204.86 312.979 205.226C311.781 206.49 310.694 207.878 309.74 209.35L308.039 211.984 308.615 208.914C309.118 206.229 308.974 203.502 308.824 201.991 307.856 203.222 306.561 205.506 305.79 207.008 303.849 211.536 306.034 213.682 306.753 214.23L307.104 214.503 306.952 214.916C306.354 216.53 305.903 218.207 305.612 219.908L305.244 222.042 304.425 220.031C302.961 216.411 301.773 214.916 301.158 214.333 300.899 215.1 300.574 216.845 301.058 220.295 301.637 224.393 303.737 224.876 304.613 224.895L305.196 224.906 305.215 225.485C305.272 227.477 305.536 229.455 305.998 231.368L306.596 233.824 304.928 231.904C302.537 229.152 300.717 228.226 299.718 227.918 302.342 235.452 304.935 236.292 305.96 236.292 306.437 236.292 306.762 236.126 306.85 236.077L307.446 235.73 307.723 236.35C308.392 237.82 309.183 239.226 310.07 240.54L311.441 242.564 309.263 241.41C306.323 239.854 304.262 239.667 303.163 239.733 306.72 244.412 309.64 245.426 311.503 245.426 312.426 245.426 313.029 245.175 313.242 245.065L313.638 244.867 313.959 245.175C315.413 246.593 317.031 247.871 318.752 248.972L321.089 250.465 318.329 250.082C317.826 250.012 316.801 249.896 315.61 249.896 313.833 249.896 312.383 250.152 311.358 250.647 312.896 251.517 316.315 253.238 319.368 253.238 321.001 253.238 322.306 252.735 323.25 251.75L323.54 251.449 323.926 251.599C326.095 252.443 328.361 253.026 330.663 253.334L333.806 253.756 330.729 254.524C329.125 254.927 325.654 255.774 323.582 256.117ZM327.438 259C325.255 259 323.423 257.551 322.818 257.073L322.754 257.022C322.033 256.455 321.85 255.921 321.822 255.823L321.608 255.095 322.377 255.051C323.34 254.99 325.675 254.482 327.659 254.02 326.363 253.721 325.094 253.336 323.853 252.872 322.7 253.922 321.195 254.451 319.368 254.451 314.92 254.451 310.053 251.298 309.847 251.162L309.154 250.71 309.799 250.187C311.04 249.189 312.998 248.68 315.61 248.68 315.812 248.68 316.006 248.685 316.196 248.69 315.216 247.957 314.279 247.167 313.392 246.325 311.778 246.917 307.197 247.531 301.578 239.644L301.118 239.002 301.867 238.727C301.924 238.704 302.499 238.506 303.531 238.506 304.527 238.506 306.015 238.692 307.944 239.455 307.552 238.781 307.187 238.09 306.85 237.384 306.603 237.454 306.307 237.505 305.96 237.505 303.936 237.505 300.949 235.741 298.228 227.344L298 226.651 298.747 226.556C298.747 226.556 298.8 226.551 298.899 226.551 299.502 226.551 301.49 226.791 304.368 229.534 304.176 228.384 304.053 227.22 304.003 226.049 302.736 225.828 300.449 224.811 299.839 220.46 299.034 214.752 300.328 213.169 300.475 213.008L300.748 212.716 301.127 212.84C301.424 212.935 302.84 213.6 304.791 217.778 305.028 216.803 305.313 215.839 305.647 214.897 304.57 213.901 302.613 211.279 304.66 206.516L304.677 206.481C305.135 205.581 307.493 201.046 308.959 200.167L309.74 199.698 309.892 200.584C309.916 200.724 310.367 203.425 310.139 206.661 310.651 206 311.187 205.361 311.747 204.748 311.192 203.808 311.031 202.765 311.27 201.65 312.253 197.087 319.788 192.728 320.109 192.546L321.058 192 321.034 193.082C321.001 194.738 319.803 197.185 318.673 199.133 319.527 198.629 320.408 198.163 321.312 197.743 322.128 196.124 324.577 192.8 331.016 192.287L332.01 192.208 331.64 193.115C331.531 193.388 328.881 199.756 322.657 200.141 321.475 200.684 320.332 201.307 319.243 202.007 319.753 201.963 320.246 201.939 320.723 201.939 324.114 201.939 325.54 203.087 325.597 203.136L326.05 203.514 325.682 203.973C325.606 204.071 323.749 206.35 319.359 207.461 318.669 207.633 317.983 207.722 317.326 207.722 315.745 207.722 314.533 207.223 313.695 206.703 312.877 207.61 312.12 208.571 311.429 209.574 312.836 208.942 314.649 208.328 316.362 208.328 316.863 208.328 317.34 208.38 317.776 208.482L318.604 208.676 318.161 209.39C317.995 209.658 314.037 215.912 308.58 215.912 308.466 215.912 308.352 215.909 308.233 215.902 307.842 217.034 307.522 218.191 307.284 219.362 308.77 217.724 311.062 215.734 313.532 215.546L314.322 215.487 314.187 216.255C314.12 216.642 312.535 225.483 306.784 226.068 306.853 227.419 307.019 228.758 307.284 230.075 308.093 227.316 309.491 224.312 311.771 224.116L312.324 224.067 312.431 224.601C312.514 225.016 314.346 234.395 309.481 236.525 310.039 237.668 310.68 238.769 311.392 239.826 311.1 237.181 311.256 233.712 313.536 231.76L314.099 231.277 314.478 231.909C314.685 232.261 319.447 240.348 315.605 244.701 316.702 245.713 317.878 246.63 319.122 247.451 316.875 243.087 317.786 240.036 317.833 239.891L318.068 239.121 318.756 239.56C325.293 243.735 325.677 248.319 325.39 250.54 328.361 251.568 331.472 252.088 334.637 252.088L335.256 252.088 335.256 252.947 337 252.861 336.084 255.261 335.712 255.305C333.197 255.606 332.236 256.453 331.308 257.269 330.646 257.85 329.967 258.449 328.831 258.792 328.382 258.93 327.915 259 327.438 259Z" fill="#00A859" fill-rule="evenodd"/><path d="M368.285 227.392C368.285 227.392 369.257 222.531 368.934 220.941 368.934 220.941 365.472 224.704 363.874 227.067 363.927 226.35 363.964 225.63 363.964 224.9 363.964 223.991 363.918 223.096 363.838 222.208 365.025 221.474 367.245 219.554 366.798 215.611 366.192 210.281 365.129 208.784 365.129 208.784 365.129 208.784 362.969 211.802 362.35 215.39 361.841 213.931 361.217 212.526 360.486 211.179 361.103 209.9 361.694 207.263 359.505 203.08 359.505 203.08 357.925 199.76 355.415 197.842 355.415 197.842 355.195 201.592 355.949 204.96 355.179 204.155 354.356 203.396 353.496 202.681 352.556 193.331 343.661 192 343.661 192 343.867 193.74 346.224 197.125 347.48 198.827 346.116 198.168 344.683 197.611 343.195 197.157 341.987 195.507 339.046 192.464 334 192.84 334 192.84 337.485 198.357 342.132 198.403 344.766 199.139 347.217 200.23 349.443 201.61 340.999 201.506 340.275 202.66 340.275 202.66 341.806 204.437 343.81 204.877 345.153 205.184 349.422 206.16 351.809 204.953 352.875 204.12 354.369 205.403 355.724 206.834 356.91 208.394 355.447 207.835 352.093 206.73 349.516 207.194 349.516 207.194 351.391 213.906 359.344 212.222 360.326 214.084 361.094 216.063 361.621 218.133 360.158 216.968 356.261 214.037 354.392 214.301 354.392 214.301 356.119 223.221 362.38 222.681 362.437 223.412 362.474 224.153 362.474 224.9 362.474 226.543 362.316 228.147 362.034 229.711 361.259 227.932 359.198 223.888 355.974 222.485 355.974 222.485 356.323 232.18 361.032 233.597 360.303 235.736 359.319 237.762 358.104 239.635 357.93 237.919 357.267 233.057 355.186 230.805 355.186 230.805 351.419 238.703 355.97 242.51 354.301 244.476 352.359 246.211 350.206 247.658 350.878 246.227 352.515 242.203 351.467 238.659 351.467 238.659 344.395 245.339 347.13 249.446 343.301 251.366 338.977 252.455 334.394 252.455L334.394 253.957C334.743 253.957 335.091 253.943 335.442 253.932L335.442 254.511C335.442 254.511 337.762 254.183 339.527 255.307 341.295 256.428 344.037 257.831 347.425 256.38 347.425 256.38 349.656 254.884 350.259 254.698 350.259 254.698 350.124 254.275 349.562 254.416 349.062 254.543 343.395 253.989 340.93 253.232 343.537 252.653 346.013 251.737 348.306 250.531 349.012 251.128 351.401 252.526 356.486 249.928 356.486 249.928 359.92 247.683 361.036 246.375 361.036 246.375 356.701 246.22 353.326 247.199 354.748 246.031 356.057 244.741 357.231 243.338 358.214 243.574 361.277 243.968 364.333 240.812 368.052 236.977 367.774 235.715 367.774 235.715 367.774 235.715 363.803 236.435 360.452 238.62 361.286 237.102 361.979 235.5 362.526 233.835 363.54 233.59 367.02 232.399 368.285 227.392Z" fill="#FFF35A" fill-rule="evenodd"/><path d="M334.556 253.231 334.556 252.347C331.092 252.347 327.764 251.729 324.693 250.604 325.03 248.946 325.272 244.168 318.461 239.817 318.461 239.817 317.25 243.666 320.953 248.923 318.694 247.703 316.622 246.187 314.794 244.432 319.106 240.53 314.017 232.025 314.017 232.025 311.139 234.486 311.991 239.722 312.523 241.983 311.016 240.15 309.742 238.127 308.748 235.956 313.932 234.574 311.911 224.585 311.911 224.585 309.238 224.817 307.879 230.141 307.417 232.449 306.734 230.187 306.341 227.81 306.273 225.352 312.057 225.386 313.656 216.083 313.656 216.083 310.338 216.335 307.286 220.243 306.44 221.416 306.694 219.268 307.194 217.183 307.931 215.197 313.442 215.866 317.679 209.058 317.679 209.058 314.822 208.391 311.143 210.335 309.829 211.113 310.898 209.236 312.194 207.491 313.678 205.91 314.655 206.643 316.518 207.562 319.24 206.875 323.447 205.812 325.19 203.627 325.19 203.627 325.19 203.627 322.933 201.759 316.852 203.018 318.574 201.678 320.47 200.525 322.512 199.602 328.459 199.308 331.016 193 331.016 193 324.681 193.505 322.465 196.81 321.786 198.268 319.992 199.09 318.301 200.076 316.737 201.206 317.679 199.792 320.392 195.518 320.442 193.176 320.442 193.176 308.887 199.789 312.606 204.831 311.386 206.123 310.286 207.523 309.33 209.009 310.1 204.882 309.391 200.734 309.391 200.734 308.011 201.56 305.368 206.754 305.368 206.754 303.239 211.699 305.766 214.09 306.497 214.653 305.898 216.28 305.439 217.972 305.138 219.71 302.794 213.923 301.101 213.368 301.101 213.368 301.101 213.368 299.838 214.727 300.62 220.275 301.27 224.912 303.894 225.345 304.74 225.361 304.794 227.389 305.06 229.384 305.533 231.324 301.551 226.736 299 227.004 299 227.004 302.738 238.525 306.734 236.692 307.283 236.375 307.954 237.844 308.743 239.263 309.66 240.618 304.871 238.083 302.241 239.05 302.241 239.05 308.258 247.488 312.825 245.701 313.6 245.312 315.1 246.773 316.728 248.055 318.456 249.159 317.227 248.988 312.573 248.49 310.291 250.326 310.291 250.326 319.419 256.303 323.701 251.819 325.892 252.671 328.178 253.263 330.531 253.578 328.708 254.034 323.967 255.191 322.425 255.284 322.425 255.284 322.545 255.698 323.145 256.171 323.746 256.643 326.089 258.59 328.612 257.823 331.134 257.055 331.134 254.872 335.578 254.34L336 253.159 334.556 253.231Z" fill="#FFF35A" fill-rule="evenodd"/><path d="M294.363 225.178C294.321 225.262 294.264 225.337 294.203 225.406 294.158 225.462 294.104 225.507 294.05 225.555 294.038 225.57 294.027 225.582 294.01 225.595 293.843 225.735 293.65 225.843 293.428 225.907 293.287 225.95 293.141 225.972 292.99 225.976 293.101 226.055 293.2 226.148 293.285 226.253 293.308 226.285 293.327 226.322 293.353 226.356L293.353 226.356 293.353 226.356C293.398 226.429 293.44 226.507 293.475 226.584 293.475 226.588 293.475 226.591 293.478 226.593 293.508 226.668 293.537 226.745 293.555 226.825 293.56 226.846 293.56 226.87 293.565 226.891 293.574 226.954 293.586 227.014 293.586 227.076 293.588 227.164 293.586 227.255 293.57 227.345 293.501 227.732 293.275 228.071 292.929 228.304 292.651 228.484 292.323 228.583 291.987 228.583 291.871 228.583 291.756 228.57 291.647 228.549 291.64 228.546 291.631 228.546 291.626 228.544 291.515 228.521 291.407 228.486 291.306 228.443 291.301 228.441 291.301 228.441 291.296 228.439 291.193 228.394 291.096 228.338 291.004 228.276 291.004 228.274 291.004 228.274 291.002 228.271 290.879 228.19 290.771 228.091 290.682 227.977 290.592 227.863 290.526 227.738 290.477 227.607 290.425 227.73 290.364 227.848 290.276 227.958 290.248 227.99 290.222 228.018 290.196 228.046L290.196 228.046C290.196 228.046 290.196 228.046 290.196 228.048 290.121 228.127 290.036 228.198 289.947 228.261 289.944 228.263 289.942 228.265 289.937 228.267 289.85 228.327 289.756 228.379 289.655 228.422 289.647 228.424 289.64 228.426 289.633 228.43 289.534 228.469 289.438 228.503 289.329 228.523 289.322 228.525 289.315 228.527 289.306 228.529 289.198 228.551 289.087 228.562 288.974 228.562 288.635 228.562 288.307 228.465 288.032 228.282 287.947 228.224 287.867 228.16 287.794 228.089 287.765 228.056 287.739 228.022 287.709 227.99 287.676 227.949 287.64 227.908 287.607 227.865 287.575 227.816 287.551 227.76 287.523 227.706 287.509 227.678 287.492 227.65 287.478 227.622 287.452 227.551 287.428 227.48 287.412 227.407 287.407 227.394 287.403 227.379 287.4 227.364 287.384 227.281 287.377 227.195 287.377 227.109 287.377 227.106 287.377 227.104 287.377 227.102 287.374 226.831 287.457 226.558 287.622 226.315L287.622 226.315 287.622 226.315C287.643 226.29 287.655 226.26 287.673 226.234 287.768 226.12 287.871 226.025 287.989 225.941 287.85 225.935 287.706 225.916 287.572 225.875 287.527 225.862 287.49 225.843 287.447 225.825L287.447 225.825 287.447 225.825C287.365 225.793 287.278 225.754 287.2 225.709 287.198 225.707 287.195 225.705 287.193 225.705 287.12 225.66 287.049 225.613 286.983 225.557 286.967 225.542 286.95 225.524 286.934 225.507 286.884 225.464 286.84 225.421 286.795 225.372 286.736 225.303 286.684 225.228 286.637 225.146 286.444 224.798 286.406 224.398 286.54 224.026 286.757 223.422 287.372 223.014 288.069 223.014 288.138 223.014 288.206 223.02 288.272 223.027 288.371 223.04 288.467 223.057 288.564 223.085 288.712 223.128 288.847 223.197 288.971 223.274 288.931 223.149 288.905 223.02 288.905 222.885 288.905 222.558 289.03 222.257 289.23 222.012 289.233 222.01 289.235 222.008 289.238 222.004 289.292 221.937 289.351 221.875 289.421 221.817 289.433 221.806 289.445 221.797 289.459 221.785 289.52 221.739 289.581 221.692 289.643 221.653 289.676 221.636 289.709 221.623 289.737 221.606 289.796 221.58 289.848 221.55 289.907 221.529 289.958 221.507 290.015 221.497 290.069 221.481 290.114 221.471 290.154 221.456 290.199 221.447 290.302 221.428 290.408 221.417 290.514 221.417 290.623 221.417 290.729 221.428 290.828 221.447 290.875 221.456 290.917 221.471 290.962 221.484 291.016 221.499 291.073 221.507 291.12 221.529 291.183 221.552 291.24 221.582 291.296 221.613 291.322 221.628 291.358 221.641 291.386 221.656 291.454 221.699 291.515 221.744 291.581 221.795 291.593 221.806 291.605 221.812 291.614 221.821 291.687 221.881 291.746 221.948 291.803 222.017 291.805 222.019 291.805 222.021 291.808 222.021 291.984 222.24 292.088 222.505 292.109 222.793L292.109 222.793 292.109 222.793C292.111 222.825 292.123 222.853 292.123 222.885 292.123 223.027 292.09 223.164 292.05 223.296 292.168 223.222 292.295 223.16 292.436 223.119 292.533 223.089 292.634 223.072 292.733 223.061 292.799 223.053 292.87 223.046 292.934 223.046 293.633 223.046 294.246 223.455 294.46 224.061 294.594 224.43 294.559 224.828 294.363 225.178ZM294.898 223.93C294.622 223.149 293.829 222.625 292.934 222.625 292.806 222.625 292.686 222.64 292.566 222.659 292.441 221.726 291.572 221 290.514 221 289.466 221 288.604 221.714 288.465 222.634 288.338 222.61 288.201 222.593 288.069 222.593 287.169 222.593 286.378 223.117 286.102 223.897 285.93 224.377 285.977 224.888 286.227 225.337 286.434 225.709 286.769 225.995 287.174 226.171 286.672 226.995 286.906 228.052 287.765 228.622 288.119 228.856 288.538 228.983 288.974 228.983 289.539 228.983 290.081 228.766 290.47 228.398 290.856 228.781 291.405 229 291.987 229 292.422 229 292.842 228.878 293.197 228.641 293.645 228.344 293.937 227.908 294.022 227.412 294.095 226.995 294.008 226.582 293.789 226.219 294.215 226.042 294.561 225.752 294.773 225.37 295.025 224.918 295.068 224.409 294.898 223.93Z" fill="#00A859" fill-rule="evenodd"/><path d="M291 222.422C291 222.189 290.779 222 290.498 222 290.221 222 290 222.189 290 222.422 290 222.562 290.083 222.679 290.208 222.757L290.208 225 290.737 225 290.737 222.786C290.893 222.716 291 222.583 291 222.422Z" fill="#00A859" fill-rule="evenodd"/><path d="M288.907 225 289 224.708 287.568 224.236C287.548 224.135 287.481 224.047 287.378 224.015 287.229 223.964 287.064 224.047 287.014 224.2 286.965 224.355 287.048 224.517 287.203 224.566 287.29 224.596 287.382 224.574 287.453 224.523L288.907 225Z" fill="#00A859" fill-rule="evenodd"/><path d="M289.662 226 288.445 227.365C288.306 227.351 288.164 227.391 288.077 227.489 287.946 227.634 287.987 227.834 288.164 227.938 288.336 228.043 288.587 228.012 288.715 227.867 288.789 227.783 288.803 227.676 288.767 227.585L290 226.2 289.662 226Z" fill="#00A859" fill-rule="evenodd"/><path d="M291.602 227.37 290.345 226 290 226.198 291.24 227.548C291.179 227.649 291.188 227.772 291.274 227.871 291.405 228.01 291.658 228.043 291.836 227.939 292.016 227.836 292.053 227.638 291.922 227.495 291.847 227.412 291.724 227.37 291.602 227.37Z" fill="#00A859" fill-rule="evenodd"/><path d="M292.986 224.208C292.94 224.048 292.778 223.963 292.626 224.015 292.537 224.046 292.476 224.119 292.448 224.205L291 224.698 291.095 225 292.523 224.514C292.596 224.586 292.699 224.619 292.804 224.584 292.954 224.534 293.035 224.365 292.986 224.208Z" fill="#00A859" fill-rule="evenodd"/><path d="M289.476 224.086C289.415 224.011 289.269 223.979 289.146 224.015 289.02 224.048 288.963 224.137 289.026 224.21 289.06 224.254 289.126 224.281 289.201 224.289L289.762 225 290 224.934 289.444 224.233C289.499 224.191 289.513 224.135 289.476 224.086Z" fill="#00A859" fill-rule="evenodd"/><path d="M290 225.473 289.971 225 288.507 225.286C288.448 225.156 288.351 225.078 288.245 225.099 288.093 225.13 287.983 225.353 288.002 225.603 288.018 225.847 288.161 226.023 288.316 225.997 288.406 225.977 288.477 225.883 288.523 225.764L290 225.473Z" fill="#00A859" fill-rule="evenodd"/><path d="M289.613 226 289.252 226.726C289.13 226.742 289.029 226.779 289.008 226.831 288.966 226.908 289.096 226.982 289.29 226.997 289.491 227.013 289.689 226.961 289.718 226.887 289.744 226.841 289.71 226.797 289.622 226.765L290 226.028 289.613 226Z" fill="#00A859" fill-rule="evenodd"/><path d="M291.571 225.578 290.158 225 290 225.206 291.395 225.776C291.395 225.856 291.452 225.931 291.546 225.972 291.69 226.032 291.879 225.993 291.96 225.885 292.044 225.776 291.991 225.642 291.844 225.58 291.757 225.544 291.655 225.547 291.571 225.578Z" fill="#00A859" fill-rule="evenodd"/><path d="M290.954 224.058C290.889 223.984 290.78 223.98 290.713 224.049 290.67 224.089 290.654 224.145 290.66 224.2L290 224.86 290.121 225 290.776 224.35C290.832 224.371 290.897 224.361 290.946 224.315 291.015 224.246 291.019 224.133 290.954 224.058Z" fill="#00A859" fill-rule="evenodd"/><path d="M289.277 224.044C289.205 223.977 289.096 223.988 289.038 224.068 288.98 224.146 288.988 224.261 289.062 224.331 289.101 224.371 289.156 224.379 289.205 224.365L289.887 225 290 224.85 289.33 224.223C289.34 224.159 289.323 224.089 289.277 224.044Z" fill="#00A859" fill-rule="evenodd"/><path d="M290 225.195 289.913 225 289.229 225.601C289.182 225.564 289.122 225.561 289.071 225.605 289.002 225.667 288.978 225.797 289.022 225.899 289.069 226.001 289.167 226.029 289.236 225.967 289.28 225.93 289.3 225.868 289.305 225.803L290 225.195Z" fill="#00A859" fill-rule="evenodd"/><path d="M290 226.037 290.431 226.757C290.343 226.79 290.299 226.841 290.328 226.893 290.372 226.969 290.568 227.016 290.74 226.995 290.931 226.977 291.034 226.902 290.99 226.824 290.97 226.78 290.882 226.747 290.789 226.731L290.353 226 290 226.037Z" fill="#00A859" fill-rule="evenodd"/><path d="M291.506 225.187 290.02 225 290 225.524 291.47 225.711C291.506 225.869 291.595 225.984 291.7 225.999 291.854 226.02 291.991 225.812 291.999 225.539 292.011 225.266 291.89 225.022 291.737 225.007 291.644 224.993 291.563 225.065 291.506 225.187Z" fill="#00A859" fill-rule="evenodd"/><path d="M290.835 224.01C290.703 223.981 290.549 224.018 290.496 224.092 290.466 224.136 290.481 224.183 290.523 224.221L290 224.945 290.256 225 290.771 224.29C290.861 224.284 290.948 224.252 290.978 224.202 291.038 224.126 290.97 224.042 290.835 224.01Z" fill="#00A859" fill-rule="evenodd"/><path d="M291 225.501C291 225.777 290.553 226 289.999 226 289.447 226 289 225.777 289 225.501 289 225.224 289.447 225 289.999 225 290.553 225 291 225.224 291 225.501Z" fill="#00A859" fill-rule="evenodd"/><path d="M381.361 225.178C381.314 225.262 381.265 225.337 381.201 225.406 381.156 225.462 381.105 225.507 381.053 225.555 381.036 225.57 381.024 225.582 381.01 225.595 380.843 225.735 380.648 225.843 380.429 225.907 380.287 225.95 380.137 225.972 379.988 225.976 380.096 226.055 380.198 226.148 380.283 226.253 380.311 226.285 380.325 226.322 380.349 226.356L380.349 226.356 380.349 226.356C380.4 226.429 380.44 226.507 380.476 226.584 380.478 226.588 380.478 226.591 380.478 226.593 380.511 226.668 380.535 226.745 380.553 226.825 380.558 226.846 380.56 226.87 380.565 226.891 380.575 226.954 380.586 227.014 380.589 227.076 380.591 227.164 380.586 227.255 380.57 227.345 380.504 227.732 380.271 228.071 379.925 228.304 379.649 228.484 379.326 228.583 378.982 228.583 378.865 228.583 378.752 228.57 378.646 228.549 378.639 228.546 378.631 228.546 378.627 228.544 378.514 228.521 378.41 228.486 378.309 228.443 378.304 228.441 378.299 228.441 378.295 228.439 378.191 228.394 378.094 228.338 378.005 228.276 378.003 228.274 378.003 228.274 378 228.271 377.88 228.19 377.772 228.091 377.68 227.977 377.588 227.863 377.524 227.738 377.475 227.607 377.423 227.73 377.362 227.848 377.275 227.958 377.251 227.99 377.221 228.018 377.192 228.046L377.192 228.046C377.192 228.046 377.192 228.046 377.192 228.048 377.122 228.127 377.037 228.198 376.947 228.261 376.945 228.263 376.94 228.265 376.94 228.267 376.849 228.327 376.754 228.379 376.655 228.422 376.648 228.424 376.641 228.426 376.634 228.43 376.538 228.469 376.436 228.503 376.328 228.523 376.321 228.525 376.312 228.527 376.302 228.529 376.196 228.551 376.088 228.562 375.977 228.562 375.636 228.562 375.311 228.465 375.03 228.282 374.943 228.224 374.865 228.16 374.792 228.089 374.764 228.056 374.736 228.022 374.71 227.99 374.677 227.949 374.637 227.908 374.611 227.865 374.576 227.816 374.55 227.76 374.524 227.706 374.51 227.678 374.493 227.65 374.479 227.622 374.448 227.551 374.43 227.48 374.415 227.407 374.411 227.394 374.406 227.379 374.404 227.364 374.383 227.281 374.375 227.195 374.373 227.109 374.373 227.106 374.373 227.104 374.373 227.102 374.373 226.831 374.453 226.558 374.623 226.315L374.623 226.315 374.623 226.315C374.639 226.29 374.656 226.26 374.677 226.234 374.764 226.12 374.87 226.025 374.988 225.941 374.847 225.935 374.708 225.916 374.573 225.875 374.529 225.862 374.491 225.843 374.448 225.825L374.448 225.825 374.448 225.825C374.359 225.793 374.279 225.754 374.201 225.709 374.199 225.707 374.196 225.705 374.194 225.705 374.121 225.66 374.05 225.613 373.984 225.557 373.966 225.542 373.952 225.524 373.933 225.507 373.888 225.464 373.836 225.421 373.796 225.372 373.735 225.303 373.681 225.228 373.638 225.146 373.443 224.798 373.405 224.398 373.539 224.026 373.751 223.422 374.371 223.014 375.068 223.014 375.134 223.014 375.207 223.02 375.273 223.027 375.372 223.04 375.471 223.057 375.567 223.085 375.713 223.128 375.848 223.197 375.972 223.274 375.93 223.149 375.906 223.02 375.906 222.885 375.906 222.558 376.027 222.257 376.224 222.012 376.229 222.01 376.234 222.008 376.234 222.004 376.29 221.937 376.352 221.875 376.418 221.817 376.429 221.806 376.448 221.797 376.46 221.785 376.519 221.739 376.582 221.692 376.646 221.653 376.679 221.636 376.71 221.623 376.738 221.606 376.794 221.58 376.846 221.55 376.907 221.529 376.959 221.507 377.013 221.497 377.07 221.481 377.11 221.471 377.155 221.456 377.195 221.447 377.298 221.428 377.404 221.417 377.513 221.417 377.619 221.417 377.727 221.428 377.831 221.447 377.875 221.456 377.918 221.471 377.963 221.484 378.017 221.499 378.071 221.507 378.123 221.529 378.184 221.552 378.238 221.582 378.297 221.613 378.325 221.628 378.356 221.641 378.387 221.656 378.455 221.699 378.516 221.744 378.577 221.795 378.589 221.806 378.603 221.812 378.615 221.821 378.681 221.881 378.745 221.948 378.803 222.017 378.803 222.019 378.806 222.021 378.806 222.021 378.982 222.24 379.091 222.505 379.112 222.793L379.112 222.793 379.112 222.793C379.112 222.825 379.121 222.853 379.121 222.885 379.121 223.027 379.091 223.164 379.046 223.296 379.168 223.222 379.293 223.16 379.435 223.119 379.531 223.089 379.632 223.072 379.734 223.061 379.8 223.053 379.866 223.046 379.929 223.046 380.626 223.046 381.244 223.455 381.46 224.061 381.592 224.43 381.559 224.828 381.361 225.178ZM381.896 223.93C381.62 223.149 380.831 222.625 379.929 222.625 379.809 222.625 379.687 222.64 379.562 222.659 379.442 221.726 378.568 221 377.513 221 376.469 221 375.603 221.714 375.468 222.634 375.334 222.61 375.207 222.593 375.068 222.593 374.171 222.593 373.379 223.117 373.104 223.897 372.932 224.377 372.974 224.888 373.228 225.337 373.436 225.709 373.765 225.995 374.175 226.171 373.667 226.995 373.907 228.052 374.762 228.622 375.115 228.856 375.537 228.983 375.977 228.983 376.542 228.983 377.079 228.766 377.466 228.398 377.859 228.781 378.405 229 378.982 229 379.423 229 379.842 228.878 380.198 228.641 380.645 228.344 380.935 227.908 381.022 227.412 381.095 226.995 381.006 226.582 380.791 226.219 381.211 226.042 381.559 225.752 381.773 225.37 382.023 224.918 382.07 224.409 381.896 223.93Z" fill="#00A859" fill-rule="evenodd"/><path d="M378 222.422C378 222.189 377.776 222 377.5 222 377.224 222 377 222.189 377 222.422 377 222.562 377.086 222.679 377.207 222.757L377.207 225 377.734 225 377.734 222.786C377.893 222.716 378 222.583 378 222.422Z" fill="#00A859" fill-rule="evenodd"/><path d="M376.907 225 377 224.708 375.565 224.236C375.545 224.135 375.479 224.047 375.376 224.015 375.225 223.964 375.062 224.047 375.015 224.2 374.965 224.355 375.046 224.517 375.199 224.566 375.287 224.596 375.378 224.574 375.453 224.523L376.907 225Z" fill="#00A859" fill-rule="evenodd"/><path d="M376.831 226 376.222 227.365C376.153 227.351 376.082 227.391 376.038 227.489 375.973 227.634 375.994 227.834 376.082 227.938 376.17 228.043 376.295 228.012 376.357 227.867 376.396 227.783 376.401 227.676 376.382 227.585L377 226.2 376.831 226Z" fill="#00A859" fill-rule="evenodd"/><path d="M379.602 227.37 378.344 226 378 226.198 379.238 227.548C379.174 227.649 379.18 227.772 379.272 227.871 379.399 228.01 379.655 228.043 379.838 227.939 380.013 227.836 380.055 227.638 379.921 227.495 379.846 227.412 379.727 227.37 379.602 227.37Z" fill="#00A859" fill-rule="evenodd"/><path d="M380.978 224.208C380.907 224.048 380.661 223.963 380.436 224.015 380.303 224.046 380.214 224.119 380.172 224.205L378 224.698 378.139 225 380.279 224.514C380.392 224.586 380.549 224.619 380.709 224.584 380.931 224.534 381.052 224.365 380.978 224.208Z" fill="#00A859" fill-rule="evenodd"/><path d="M377.477 224.086C377.417 224.011 377.267 223.979 377.144 224.015 377.02 224.048 376.965 224.137 377.023 224.21 377.057 224.254 377.126 224.281 377.201 224.289L377.759 225 378 224.934 377.445 224.233C377.5 224.191 377.511 224.135 377.477 224.086Z" fill="#00A859" fill-rule="evenodd"/><path d="M377 225.473 376.981 225 376.251 225.286C376.224 225.156 376.175 225.078 376.124 225.099 376.046 225.13 375.991 225.353 376.001 225.603 376.011 225.847 376.08 226.023 376.156 225.997 376.203 225.977 376.238 225.883 376.259 225.764L377 225.473Z" fill="#00A859" fill-rule="evenodd"/><path d="M377.622 226 377.256 226.726C377.13 226.742 377.029 226.779 377.008 226.831 376.966 226.908 377.1 226.982 377.294 226.997 377.491 227.013 377.685 226.961 377.722 226.887 377.748 226.841 377.706 226.797 377.63 226.765L378 226.028 377.622 226Z" fill="#00A859" fill-rule="evenodd"/><path d="M378.783 225.578 378.077 225 378 225.206 378.697 225.776C378.697 225.856 378.722 225.931 378.774 225.972 378.846 226.032 378.939 225.993 378.981 225.885 379.021 225.776 378.995 225.642 378.922 225.58 378.878 225.544 378.827 225.547 378.783 225.578Z" fill="#00A859" fill-rule="evenodd"/><path d="M378.955 224.058C378.892 223.984 378.781 223.98 378.713 224.049 378.675 224.089 378.657 224.145 378.663 224.2L378 224.86 378.122 225 378.777 224.35C378.837 224.371 378.9 224.361 378.945 224.315 379.016 224.246 379.018 224.133 378.955 224.058Z" fill="#00A859" fill-rule="evenodd"/><path d="M377.277 224.044C377.207 223.977 377.099 223.988 377.039 224.068 376.979 224.146 376.991 224.261 377.058 224.331 377.104 224.371 377.157 224.379 377.209 224.365L377.887 225 378 224.85 377.33 224.223C377.342 224.159 377.325 224.089 377.277 224.044Z" fill="#00A859" fill-rule="evenodd"/><path d="M377 225.195 376.913 225 376.23 225.601C376.181 225.564 376.123 225.561 376.072 225.605 375.999 225.667 375.979 225.797 376.023 225.899 376.07 226.001 376.163 226.029 376.237 225.967 376.281 225.93 376.303 225.868 376.308 225.803L377 225.195Z" fill="#00A859" fill-rule="evenodd"/><path d="M378 226.037 378.431 226.757C378.338 226.79 378.294 226.841 378.324 226.893 378.373 226.969 378.554 227.016 378.736 226.995 378.922 226.977 379.035 226.902 378.99 226.824 378.961 226.78 378.883 226.747 378.785 226.731L378.343 226 378 226.037Z" fill="#00A859" fill-rule="evenodd"/><path d="M378.755 225.187 378.01 225 378 225.524 378.735 225.711C378.755 225.869 378.797 225.984 378.85 225.999 378.929 226.02 378.994 225.812 379 225.539 379.004 225.266 378.947 225.022 378.87 225.007 378.824 224.993 378.785 225.065 378.755 225.187Z" fill="#00A859" fill-rule="evenodd"/><path d="M378.839 224.01C378.703 223.981 378.553 224.018 378.5 224.092 378.463 224.136 378.474 224.183 378.523 224.221L378 224.945 378.256 225 378.763 224.29C378.861 224.284 378.944 224.252 378.982 224.202 379.034 224.126 378.97 224.042 378.839 224.01Z" fill="#00A859" fill-rule="evenodd"/><path d="M379 225.501C379 225.777 378.552 226 378 226 377.445 226 377 225.777 377 225.501 377 225.224 377.445 225 378 225 378.552 225 379 225.224 379 225.501Z" fill="#00A859" fill-rule="evenodd"/><path d="M301.665 194.372 301.533 194.728C301.229 194.596 300.973 194.499 300.765 194.439L300.894 194.086C301.125 194.111 301.384 194.208 301.665 194.372ZM300.506 195.148C300.651 195.357 300.79 195.566 300.932 195.772L300.481 195.956C300.364 195.715 300.2 195.466 299.997 195.21 300.222 195.053 300.367 194.974 300.423 194.966 300.481 194.989 300.511 195.048 300.506 195.148ZM300.05 196.304 299.809 196.123 299.401 196.638 299.639 196.822 300.05 196.304ZM300.646 196.232 299.675 197.451 298.813 196.794 299.784 195.573 300.646 196.232ZM303.209 196.008 303.906 196.772C304.091 196.988 304.002 197.374 303.645 197.926 303.265 198.466 302.671 199.095 301.873 199.811L301.536 199.558C302.144 199.115 302.659 198.632 303.085 198.1 303.488 197.555 303.627 197.187 303.503 196.988L303.257 196.722 300.755 199.864 300.907 200.058 300.59 200.264 299.591 199.197 302.055 196.105 301.766 195.887 299.196 199.12 298.808 198.826 301.685 195.218 302.732 196.023 300.162 199.257 300.413 199.523 303.209 196.008ZM299.279 197.374 299.147 197.727C298.841 197.593 298.585 197.498 298.377 197.439L298.504 197.083C298.714 197.145 298.973 197.24 299.279 197.374ZM300.925 193.656 300.712 194.021 300.522 193.874 300.306 194.24 301.5 195.155 301.203 195.531 300.058 194.653 299.695 195.203 299.322 194.994 299.535 194.631C299.523 194.519 299.52 194.389 299.533 194.248 299.216 194.26 298.904 194.295 298.592 194.362L298.504 193.991 298.711 193.924C298.595 193.683 298.478 193.417 298.354 193.121 298.597 193.031 298.755 193.002 298.815 193.021 298.846 193.044 298.853 193.101 298.836 193.188 298.93 193.459 299.018 193.703 299.104 193.919 299.216 193.907 299.327 193.894 299.439 193.879 299.401 193.544 299.31 193.273 299.168 193.064 299.421 193.006 299.576 192.987 299.634 193.009 299.695 193.029 299.705 193.099 299.662 193.218 299.728 193.519 299.794 193.822 299.86 194.126L300.073 193.76C299.956 193.718 299.878 193.683 299.847 193.661L299.89 193.315C300.245 193.385 300.59 193.499 300.925 193.656ZM299.543 195.392 298.575 196.61 298.288 196.391 299.259 195.173 299.543 195.392ZM298.686 199.563C299.322 200.247 299.857 200.988 300.304 201.781L299.898 202C299.505 201.144 298.935 200.378 298.187 199.707 298.389 199.486 298.526 199.379 298.597 199.384 298.656 199.376 298.686 199.436 298.686 199.563ZM299.069 195.024 298.098 196.242 297.811 196.026 298.78 194.805 299.069 195.024ZM298.121 198.147C298.286 198.324 298.428 198.535 298.547 198.777L298.177 198.946C298.093 198.729 297.918 198.468 297.647 198.162 297.847 198.04 297.976 197.976 298.035 197.968 298.093 197.988 298.123 198.05 298.121 198.147ZM298.653 194.481 297.457 195.984 297.173 195.762 298.367 194.263 298.653 194.481ZM298.017 194.22 297.046 195.439 296.762 195.22 297.73 194.001 298.017 194.22ZM297.502 198.729 297.555 199.147C297.104 199.202 296.721 199.264 296.412 199.329L296.311 198.876C296.653 198.834 297.048 198.787 297.502 198.729ZM298.539 196.655 298.397 196.926 298.171 196.829 297.959 197.195 299.153 198.108 298.853 198.483 297.657 197.568 297.342 198.157 296.972 197.948 297.147 197.628C297.135 197.518 297.132 197.391 297.145 197.25 296.828 197.26 296.534 197.309 296.26 197.399L296.042 197.085 296.326 196.924C296.235 196.653 296.113 196.384 295.966 196.12 296.214 196.033 296.369 196.001 296.43 196.021 296.463 196.046 296.468 196.101 296.453 196.188 296.544 196.459 296.63 196.702 296.711 196.919 296.828 196.906 296.942 196.891 297.053 196.879 297.013 196.546 296.922 196.275 296.78 196.063 297.031 196.006 297.18 195.994 297.228 196.031 297.277 196.068 297.292 196.13 297.274 196.217 297.34 196.518 297.406 196.822 297.474 197.123L297.725 196.712 297.497 196.613 297.578 196.222C297.875 196.297 298.194 196.444 298.539 196.655ZM296.133 197.456 296.186 197.874C295.707 197.958 295.345 198.058 295.099 198.172L295 197.72C295.304 197.598 295.682 197.511 296.133 197.456Z" fill="#00A859" fill-rule="evenodd"/><path d="M313.073 188.947 312.724 188.412 311.317 189.339 311.668 189.874 313.073 188.947ZM314 189.516 313.613 189.771 313.298 189.288 311.893 190.214 312.211 190.7 311.823 190.953 310.68 189.207 312.852 187.768 314 189.516ZM310.429 187.559 308.16 189.062C308.329 189.183 308.535 189.324 308.782 189.487L310.521 188.335C310.547 188.089 310.513 187.829 310.429 187.559ZM311.077 186.645 310.826 186.256 306.956 188.814 307.211 189.203 311.077 186.645ZM312.855 187.35 308.746 190.066 308.92 190.438 310.37 189.48 311.119 190.724C311.194 190.907 311.155 191.116 311.012 191.352 310.855 191.571 310.538 191.78 310.068 191.977L309.765 191.619C310.065 191.512 310.31 191.398 310.506 191.269 310.683 191.152 310.729 191.006 310.637 190.834L310.237 190.124 309.126 190.858C309.4 191.558 309.269 192.271 308.726 193 308.63 192.925 308.492 192.878 308.295 192.869 308.77 192.183 308.918 191.6 308.741 191.111L307.772 191.753 307.516 191.364 308.533 190.693C308.523 190.608 308.467 190.484 308.358 190.321L307.199 191.089 306.947 190.7 308.443 189.708C308.145 189.533 307.923 189.407 307.772 189.319L307.092 189.767 306.361 188.648 310.91 185.643 311.639 186.762 310.818 187.304C310.869 187.596 310.903 187.853 310.91 188.079L312.603 186.961 312.855 187.35ZM310.884 184.338 308.223 186.096 308.445 186.436 310.525 185.062 310.751 185.403 306.107 188.468 305.881 188.13 308.061 186.694 307.838 186.351 305.228 188.079 305 187.737 307.613 186.013 307.39 185.673C307.666 185.49 307.823 185.412 307.86 185.432 307.893 185.456 307.913 185.515 307.906 185.612L308.002 185.755 310.661 184 310.884 184.338Z" fill="#00A859" fill-rule="evenodd"/><path d="M322.15 181.935 320.362 182.444C320.664 182.905 320.866 183.249 320.963 183.476L322.156 183.136C322.195 182.762 322.193 182.361 322.15 181.935ZM323.86 180.355 321.179 181.117 321.343 181.728 323.877 181.007 324.994 185.12C325.027 185.294 324.917 185.451 324.671 185.596 324.406 185.724 324.009 185.819 323.491 185.876L323.392 185.521C323.718 185.537 324.011 185.499 324.272 185.406 324.52 185.336 324.624 185.188 324.58 184.963L323.638 181.512 322.547 181.823C322.551 182.367 322.553 182.768 322.553 183.024L323.498 182.755 323.608 183.161 321.869 183.656 322.089 184.47 323.927 183.945 324.037 184.351 322.199 184.875 322.587 186.297 322.188 186.409 321.807 184.988 320.064 185.484 319.954 185.078 321.69 184.582 321.468 183.769 319.831 184.236 319.723 183.828 320.616 183.575C320.394 183.163 320.198 182.819 320.014 182.541L319.02 182.826 320.124 186.888 319.73 187 318.511 182.532 320.946 181.84 320.78 181.23 318.097 181.995 318 181.64 320.685 180.877 320.56 180.419C320.858 180.335 321.026 180.304 321.069 180.328 321.097 180.357 321.076 180.419 321.011 180.509L321.082 180.763 323.763 180 323.86 180.355Z" fill="#00A859" fill-rule="evenodd"/><path d="M337.293 179.425 337.308 178.907 335.873 178.866 335.858 179.382 337.293 179.425ZM337.269 180.281 337.281 179.823 335.846 179.782 335.834 180.243 337.269 180.281ZM335.454 179.372 335.466 178.856 334.031 178.816 334.017 179.331 335.454 179.372ZM335.433 180.231 335.442 179.773 334.007 179.734 333.995 180.193 335.433 180.231ZM337.553 182.472 332.555 182.332 332.567 181.874 337.565 182.011 337.553 182.472ZM333.558 179.319 333.572 178.804 332.195 178.765 332.178 179.281 333.558 179.319ZM333.536 180.181 333.548 179.72 332.168 179.682 332.154 180.142 333.536 180.181ZM337.957 184.547C337.837 184.659 337.776 184.81 337.772 185 336.95 184.902 336.284 184.722 335.772 184.458 335.262 184.196 334.776 183.789 334.31 183.242L333.394 183.215 333.365 184.249C333.863 184.187 334.231 184.122 334.464 184.05L334.567 184.395C334.026 184.611 333.216 184.762 332.142 184.846L332.038 184.441C332.305 184.41 332.613 184.362 332.959 184.295L332.988 183.206 332.132 183.182 332.142 182.723 338 182.884 337.988 183.342 334.832 183.256C335.091 183.493 335.389 183.731 335.731 183.971 336.115 183.827 336.526 183.628 336.954 183.374 337.161 183.587 337.243 183.724 337.202 183.779 337.18 183.837 337.094 183.873 336.94 183.887 336.63 183.995 336.377 184.103 336.183 184.213 336.601 184.374 337.19 184.489 337.957 184.547ZM337.716 180.754 331.683 180.588 331.745 178.353 333.582 178.401 333.594 178C333.957 178.01 334.149 178.034 334.163 178.074 334.185 178.113 334.144 178.17 334.048 178.242L334.043 178.415 335.478 178.453 335.488 178.053C335.873 178.065 336.065 178.089 336.063 178.127 336.082 178.166 336.024 178.221 335.887 178.293L335.885 178.465 337.776 178.516 337.716 180.754ZM337.921 181.62 332.12 181.459C332.101 182.071 332.048 182.673 331.954 183.263 331.863 183.853 331.673 184.355 331.394 184.77 331.284 184.611 331.151 184.532 331 184.527 331.3 184.076 331.495 183.575 331.587 183.023 331.659 182.472 331.707 181.793 331.728 180.991L337.933 181.162 337.921 181.62Z" fill="#00A859" fill-rule="evenodd"/><path d="M350.716 183.698 351.418 181.818 349.084 181.192 348.38 183.072 350.716 183.698ZM349.849 186.011 350.571 184.085 348.235 183.457 347.515 185.385 349.849 186.011ZM347.983 182.964 348.685 181.085 346.294 180.444 345.589 182.323 347.983 182.964ZM347.116 185.279 347.835 183.349 345.447 182.708 344.725 184.636 347.116 185.279ZM349.979 187 349.527 186.88 349.721 186.349 344.597 184.973 344.4 185.503 344 185.397 346.021 180 352 181.603 349.979 187Z" fill="#00A859" fill-rule="evenodd"/><path d="M363.84 189.366C363.15 189.599 362.474 189.783 361.82 189.91L361.705 189.513C362.391 189.408 363.086 189.195 363.79 188.884 363.933 189.125 364.002 189.279 364 189.342 363.983 189.419 363.933 189.426 363.84 189.366ZM361.589 192.842C361.367 192.825 361.184 192.882 361.044 193 360.549 192.077 360.453 190.69 360.763 188.836L358.69 191.529C358.523 191.744 358.306 191.792 358.021 191.674 357.73 191.567 357.314 191.234 356.774 190.666L357.05 190.396C357.488 190.918 357.802 191.218 357.995 191.302 358.214 191.38 358.404 191.299 358.564 191.063L361.853 186.785C362.127 186.942 362.253 187.037 362.229 187.063 362.224 187.102 362.162 187.137 362.046 187.168L361.553 187.81C361.27 188.205 361.106 188.932 361.06 189.993 360.994 191.043 361.172 191.992 361.589 192.842ZM360.458 187.416C359.485 188.623 358.068 189.349 356.207 189.59 356.209 189.465 356.138 189.312 356 189.134 357.559 189.04 358.856 188.472 359.889 187.431L358.216 186.342 358.48 186 360.432 187.271 360.458 187.416Z" fill="#00A859" fill-rule="evenodd"/><path d="M368.899 201.198 368.671 200.886 372.531 198.24C372.733 198.527 372.82 198.676 372.792 198.699 372.759 198.72 372.703 198.704 372.618 198.649L368.899 201.198ZM369.105 202.932C368.953 203.035 368.76 203.021 368.53 202.89 368.305 202.732 368.019 202.335 367.677 201.698L368 201.476C368.186 201.93 368.35 202.24 368.495 202.41 368.641 202.58 368.788 202.61 368.939 202.507L373.723 199.234C373.922 199.519 374.018 199.682 373.997 199.717 373.974 199.751 373.91 199.753 373.793 199.721L369.105 202.932ZM369.037 199.962C368.892 199.882 368.751 199.848 368.617 199.85 368.861 199.234 369.091 198.564 369.304 197.838L366.223 199.946 366 199.634 368.892 197.648C368.038 197.79 367.166 197.783 366.279 197.629 366.361 197.487 366.41 197.338 366.439 197.186 367.316 197.388 368.324 197.393 369.459 197.195L368.528 195.891 368.894 195.638 369.858 196.989 370.822 196.33C370.439 195.921 370.142 195.567 369.928 195.266L370.217 195C370.958 195.969 371.668 196.711 372.353 197.223 372.227 197.492 372.135 197.62 372.081 197.609 372.041 197.618 371.994 197.583 371.94 197.508 371.621 197.191 371.338 196.89 371.094 196.612L370.085 197.303 371.016 198.61 370.648 198.86 369.748 197.599C369.548 198.408 369.314 199.193 369.037 199.962Z" fill="#00A859" fill-rule="evenodd"/><path d="M378.13 211.192C378.135 210.841 378.2 210.414 378.328 209.909 377.999 209.73 377.683 209.451 377.369 209.073L378.13 211.192ZM378.754 213.295C378.605 213.241 378.477 213.218 378.373 213.229 378.286 213.234 378.232 213.248 378.218 213.271 378.164 212.743 378.132 212.293 378.13 211.923L378.127 211.369 377.711 211.488 376.82 208.996 377.176 208.892C376.784 208.421 376.491 208.026 376.292 207.711L375.994 207.241C376.164 207.176 376.29 207.122 376.36 207.078 376.431 207.02 376.452 206.994 376.433 207.001 376.815 207.709 377.215 208.268 377.625 208.678 378.033 209.087 378.495 209.453 379 209.776 379.002 210.088 378.969 210.263 378.895 210.305 378.84 210.338 378.77 210.291 378.681 210.161 378.553 210.957 378.529 211.665 378.621 212.282 378.691 212.906 378.733 213.241 378.754 213.295ZM376.19 212.915 377.204 212.624 376.517 210.715 375.506 211.006 375.736 211.641 375.856 211.432C376.235 211.634 376.567 211.774 376.859 211.846 376.768 212.086 376.684 212.226 376.614 212.268 376.535 212.291 376.475 212.247 376.439 212.14 376.24 212.081 376.034 211.984 375.809 211.853L376.19 212.915ZM375.354 210.58 376.363 210.293 375.665 208.331 374.651 208.619 375.03 209.679C375.247 209.423 375.43 209.197 375.576 208.999L375.926 209.25C375.751 209.492 375.566 209.76 375.359 210.051L375.087 209.837 375.354 210.58ZM375.866 213.474 374.024 208.328 375.987 207.772 377.829 212.915 375.866 213.474ZM374.272 213.05 374.808 212.899 373.532 209.346 372.999 209.497 374.272 213.05ZM373.318 213.32 373.851 213.169 372.581 209.616 372.045 209.769 373.318 213.32ZM372.579 214 372.424 213.576 372.903 213.441 371.63 209.888 371.154 210.021 371 209.597 373.799 208.801 375.375 213.204 372.579 214Z" fill="#00A859" fill-rule="evenodd"/><path d="M292.439 238.7 292.502 238.984C292.182 239.021 291.904 238.994 291.672 238.903 291.437 238.811 291.262 238.665 291.142 238.465 291.02 238.255 290.973 238.068 291.015 237.901 291.054 237.733 291.161 237.58 291.34 237.443 291.52 237.306 291.735 237.195 291.989 237.115 292.268 237.028 292.529 236.989 292.783 237.003 293.032 237.014 293.252 237.074 293.445 237.181 293.635 237.29 293.784 237.43 293.884 237.6 293.999 237.794 294.029 237.977 293.972 238.152 293.914 238.326 293.782 238.478 293.567 238.608L293.335 238.382C293.503 238.276 293.606 238.166 293.638 238.054 293.679 237.94 293.657 237.819 293.582 237.689 293.496 237.541 293.369 237.434 293.21 237.363 293.054 237.295 292.883 237.266 292.693 237.279 292.505 237.29 292.324 237.323 292.15 237.379 291.921 237.45 291.74 237.535 291.601 237.637 291.462 237.739 291.381 237.853 291.357 237.981 291.335 238.107 291.359 238.23 291.428 238.348 291.513 238.49 291.643 238.594 291.813 238.658 291.987 238.722 292.194 238.736 292.439 238.7Z" fill="#00A859" fill-rule="evenodd"/><path d="M292 240.166 294.875 239 295.065 239.309 293.88 239.788 294.628 241.002 295.81 240.523 296 240.832 293.122 242 292.935 241.689 294.291 241.139 293.543 239.925 292.188 240.477 292 240.166Z" fill="#00A859" fill-rule="evenodd"/><path d="M294 243.609 296.798 242 297 242.389 294.202 244 294 243.609Z" fill="#00A859" fill-rule="evenodd"/><path d="M295.772 244.446 296.386 245.036 297.039 244.568C297.237 244.425 297.404 244.312 297.545 244.228 297.323 244.273 297.096 244.307 296.865 244.333L295.772 244.446ZM294 244.369 297.734 244 298 244.25 295.692 246 295.422 245.738 296.132 245.22 295.374 244.491 294.251 244.612 294 244.369Z" fill="#00A859" fill-rule="evenodd"/><path d="M297 246.176 297.333 246 298 246.826 297.661 247 297 246.176Z" fill="#00A859" fill-rule="evenodd"/><path d="M297 248.421 299.569 247 299.811 247.27 298.755 249.441 300.771 248.323 301 248.577 298.436 250 298.189 249.73 299.247 247.559 297.234 248.677 297 248.421Z" fill="#00A859" fill-rule="evenodd"/><path d="M300.355 250.834 300.926 251.589 301.335 250.863C301.458 250.642 301.564 250.469 301.655 250.339 301.495 250.423 301.333 250.495 301.161 250.558L300.355 250.834ZM299 250.921 301.762 250 302 250.317 300.579 253 300.325 252.666 300.766 251.868 300.06 250.938 299.238 251.233 299 250.921Z" fill="#00A859" fill-rule="evenodd"/><path d="M301 253.131 302.757 251 302.971 251.321 302.42 254.242 303.799 252.567 304 252.869 302.243 255 302.027 254.679 302.58 251.758 301.199 253.433 301 253.131Z" fill="#00A859" fill-rule="evenodd"/><path d="M304 256.664 305.757 254 306 254.336 304.241 257 304 256.664Z" fill="#00A859" fill-rule="evenodd"/><path d="M306.214 256.263 306.775 256.821C306.892 256.938 307 257.017 307.086 257.057 307.174 257.095 307.26 257.1 307.341 257.072 307.425 257.044 307.493 256.994 307.544 256.923 307.625 256.814 307.663 256.692 307.641 256.555 307.625 256.418 307.546 256.278 307.403 256.134L306.78 255.51 306.214 256.263ZM305 257.273 306.705 255 307.579 255.873C307.755 256.045 307.874 256.2 307.936 256.332 307.995 256.461 308.013 256.608 307.991 256.765 307.969 256.923 307.909 257.065 307.817 257.189 307.696 257.351 307.546 257.44 307.374 257.46 307.2 257.481 307.009 257.412 306.797 257.255 306.839 257.361 306.863 257.45 306.872 257.524 306.885 257.678 306.881 257.854 306.861 258.041L306.738 259 306.41 258.675 306.506 257.942C306.531 257.729 306.546 257.564 306.551 257.443 306.557 257.321 306.551 257.224 306.533 257.156 306.515 257.09 306.491 257.032 306.458 256.978 306.434 256.94 306.388 256.892 306.321 256.824L306.02 256.522 305.264 257.531 305 257.273Z" fill="#00A859" fill-rule="evenodd"/><path d="M308.164 258.304 308.768 258.815C308.898 258.922 309.008 258.994 309.099 259.024 309.191 259.055 309.278 259.055 309.359 259.019 309.44 258.983 309.507 258.927 309.558 258.851 309.632 258.736 309.657 258.612 309.632 258.477 309.605 258.339 309.516 258.207 309.359 258.072L308.688 257.504 308.164 258.304ZM307 259.414 308.582 257 309.52 257.794C309.713 257.957 309.842 258.1 309.912 258.227 309.981 258.352 310.01 258.497 309.997 258.658 309.986 258.815 309.936 258.963 309.849 259.095 309.735 259.269 309.589 259.373 309.417 259.406 309.243 259.442 309.043 259.388 308.82 259.248 308.867 259.35 308.898 259.439 308.911 259.51 308.934 259.666 308.943 259.839 308.931 260.03L308.873 261 308.517 260.7 308.564 259.961C308.578 259.745 308.585 259.577 308.582 259.454 308.578 259.335 308.564 259.241 308.544 259.172 308.522 259.106 308.493 259.05 308.457 259.001 308.43 258.966 308.381 258.917 308.309 258.856L307.985 258.581 307.278 259.653 307 259.414Z" fill="#00A859" fill-rule="evenodd"/><path d="M310 261.759 311.666 259 312 259.241 310.329 262 310 261.759Z" fill="#00A859" fill-rule="evenodd"/><path d="M312.386 261.753 312.566 261.469 313.661 262.069 313.102 262.975C312.857 263.008 312.621 263.008 312.401 262.975 312.189 262.939 311.981 262.872 311.794 262.767 311.543 262.628 311.343 262.451 311.196 262.231 311.052 262.016 310.989 261.78 311.002 261.529 311.014 261.275 311.098 261.029 311.245 260.787 311.391 260.551 311.579 260.357 311.814 260.209 312.047 260.061 312.292 259.991 312.553 260.001 312.811 260.01 313.069 260.085 313.327 260.226 313.515 260.328 313.664 260.45 313.78 260.591 313.897 260.732 313.97 260.876 313.99 261.026 314.013 261.175 313.995 261.344 313.94 261.533L313.58 261.442C313.618 261.299 313.628 261.175 313.616 261.072 313.603 260.967 313.555 260.866 313.472 260.763 313.396 260.663 313.287 260.577 313.155 260.503 313.001 260.417 312.854 260.364 312.712 260.348 312.571 260.331 312.436 260.338 312.323 260.374 312.209 260.407 312.105 260.457 312.011 260.527 311.854 260.639 311.72 260.785 311.611 260.962 311.475 261.182 311.406 261.385 311.394 261.574 311.381 261.765 311.432 261.937 311.538 262.093 311.647 262.246 311.786 262.37 311.956 262.466 312.102 262.547 312.264 262.6 312.436 262.623 312.614 262.647 312.758 262.647 312.867 262.628L313.148 262.172 312.386 261.753Z" fill="#00A859" fill-rule="evenodd"/><path d="M314.964 263.288 315.637 263.675 315.695 262.901C315.712 262.663 315.732 262.471 315.754 262.327 315.665 262.465 315.57 262.594 315.462 262.718L314.964 263.288ZM314 263.933 315.717 262 316 262.162 315.857 265 315.557 264.827 315.615 263.977 314.787 263.501 314.281 264.093 314 263.933Z" fill="#00A859" fill-rule="evenodd"/><path d="M317 264.866 317.822 262.636 317.061 262.3 317.172 262 319 262.812 318.893 263.111 318.127 262.77 317.303 265 317 264.866Z" fill="#00A859" fill-rule="evenodd"/><path d="M319 265.869 319.724 263 320 263.133 319.278 266 319 265.869Z" fill="#00A859" fill-rule="evenodd"/><path d="M321.312 265.279C321.246 265.614 321.258 265.908 321.349 266.15 321.438 266.392 321.581 266.554 321.774 266.629 321.973 266.705 322.156 266.671 322.321 266.529 322.487 266.38 322.605 266.13 322.676 265.771 322.723 265.545 322.736 265.335 322.713 265.144 322.692 264.953 322.638 264.792 322.551 264.657 322.464 264.522 322.356 264.429 322.227 264.378 322.039 264.305 321.861 264.332 321.692 264.459 321.521 264.586 321.394 264.86 321.312 265.279ZM321.044 265.166C321.136 264.704 321.295 264.376 321.523 264.185 321.751 263.991 322.009 263.95 322.288 264.06 322.471 264.133 322.622 264.258 322.744 264.439 322.87 264.618 322.948 264.836 322.981 265.085 323.014 265.335 323.004 265.599 322.948 265.878 322.891 266.162 322.8 266.397 322.673 266.59 322.549 266.781 322.401 266.904 322.23 266.962 322.06 267.019 321.887 267.011 321.713 266.945 321.525 266.872 321.372 266.742 321.25 266.558 321.128 266.375 321.051 266.157 321.02 265.91 320.987 265.658 320.995 265.413 321.044 265.166Z" fill="#00A859" fill-rule="evenodd"/><path d="M324 267.465 324.396 264 324.675 264.09 325.429 267.167 325.742 264.445 326 264.529 325.604 268 325.327 267.904 324.57 264.828 324.258 267.552 324 267.465Z" fill="#00A859" fill-rule="evenodd"/><path d="M328.7 266.654 329.423 266.746 329.257 265.927C329.206 265.68 329.168 265.477 329.148 265.317 329.106 265.499 329.055 265.673 328.994 265.85L328.7 266.654ZM328 267.748 329.023 265 329.327 265.039 330 268 329.677 267.959 329.49 267.065 328.597 266.954 328.299 267.785 328 267.748Z" fill="#00A859" fill-rule="evenodd"/><path d="M331 266.982 331.313 266.96C331.324 267.105 331.358 267.227 331.407 267.323 331.463 267.416 331.544 267.494 331.654 267.556 331.77 267.617 331.897 267.651 332.04 267.656 332.17 267.659 332.281 267.641 332.379 267.602 332.479 267.561 332.552 267.504 332.601 267.431 332.652 267.357 332.678 267.274 332.68 267.183 332.682 267.095 332.661 267.014 332.618 266.943 332.573 266.875 332.501 266.816 332.396 266.767 332.328 266.733 332.179 266.681 331.949 266.608 331.721 266.537 331.559 266.47 331.467 266.412 331.35 266.333 331.262 266.24 331.207 266.132 331.149 266.022 331.124 265.902 331.128 265.767 331.13 265.623 331.171 265.488 331.245 265.361 331.322 265.236 331.428 265.145 331.567 265.084 331.71 265.023 331.866 264.996 332.034 265.001 332.221 265.005 332.388 265.047 332.526 265.121 332.667 265.194 332.774 265.302 332.846 265.439 332.921 265.576 332.959 265.728 332.959 265.9L332.639 265.914C332.624 265.731 332.571 265.591 332.475 265.495 332.377 265.397 332.234 265.348 332.04 265.339 331.838 265.331 331.691 265.37 331.597 265.451 331.499 265.535 331.454 265.635 331.45 265.753 331.448 265.858 331.475 265.946 331.539 266.015 331.603 266.083 331.77 266.157 332.036 266.238 332.309 266.319 332.492 266.385 332.592 266.441 332.735 266.524 332.84 266.63 332.906 266.747 332.974 266.87 333.004 267.009 333 267.164 332.997 267.318 332.957 267.463 332.876 267.597 332.797 267.73 332.682 267.83 332.535 267.901 332.392 267.972 332.23 268.006 332.049 267.999 331.819 267.992 331.629 267.948 331.475 267.864 331.324 267.783 331.207 267.663 331.124 267.507 331.04 267.35 331 267.176 331 266.982Z" fill="#00A859" fill-rule="evenodd"/><path d="M334 267.047 334.314 267.005C334.333 267.15 334.369 267.27 334.422 267.361 334.479 267.452 334.566 267.528 334.683 267.579 334.797 267.633 334.929 267.66 335.067 267.656 335.194 267.651 335.304 267.628 335.402 267.582 335.497 267.535 335.569 267.474 335.614 267.395 335.658 267.319 335.682 267.233 335.679 267.145 335.677 267.054 335.656 266.976 335.605 266.91 335.561 266.843 335.482 266.787 335.378 266.745 335.308 266.716 335.162 266.672 334.931 266.615 334.696 266.559 334.534 266.5 334.441 266.446 334.32 266.377 334.229 266.291 334.168 266.183 334.106 266.078 334.074 265.957 334.072 265.825 334.068 265.678 334.102 265.54 334.172 265.41 334.242 265.283 334.344 265.182 334.481 265.111 334.617 265.042 334.774 265.005 334.939 265.001 335.126 264.996 335.289 265.025 335.431 265.091 335.576 265.158 335.686 265.256 335.764 265.388 335.843 265.521 335.892 265.673 335.9 265.842L335.58 265.879C335.561 265.695 335.499 265.56 335.4 265.469 335.3 265.378 335.151 265.334 334.958 265.339 334.761 265.344 334.613 265.391 334.524 265.479 334.43 265.567 334.39 265.67 334.392 265.791 334.394 265.894 334.426 265.98 334.494 266.046 334.56 266.112 334.725 266.173 335.001 266.24 335.27 266.301 335.457 266.357 335.559 266.407 335.703 266.483 335.815 266.578 335.887 266.696 335.961 266.814 335.998 266.949 336 267.106 336.004 267.26 335.97 267.408 335.896 267.545 335.819 267.685 335.713 267.793 335.571 267.871 335.429 267.952 335.27 267.994 335.092 267.999 334.863 268.006 334.674 267.972 334.515 267.898 334.363 267.827 334.242 267.717 334.151 267.565 334.061 267.413 334.011 267.238 334 267.047Z" fill="#00A859" fill-rule="evenodd"/><path d="M337.292 266.642C337.317 266.99 337.403 267.254 337.552 267.436 337.7 267.617 337.878 267.695 338.079 267.666 338.285 267.639 338.451 267.514 338.569 267.293 338.688 267.073 338.735 266.776 338.71 266.406 338.693 266.171 338.65 265.97 338.58 265.803 338.511 265.637 338.418 265.512 338.298 265.431 338.183 265.348 338.056 265.318 337.918 265.335 337.724 265.362 337.564 265.48 337.437 265.683 337.308 265.889 337.261 266.208 337.292 266.642ZM337.01 266.673C336.973 266.198 337.038 265.808 337.206 265.512 337.372 265.215 337.603 265.049 337.894 265.007 338.084 264.983 338.264 265.022 338.428 265.13 338.589 265.232 338.721 265.394 338.816 265.612 338.913 265.828 338.971 266.08 338.993 266.37 339.014 266.661 338.989 266.931 338.92 267.171 338.853 267.413 338.742 267.607 338.596 267.747 338.449 267.886 338.285 267.97 338.104 267.992 337.91 268.019 337.731 267.98 337.566 267.869 337.403 267.759 337.275 267.595 337.179 267.377 337.082 267.164 337.028 266.928 337.01 266.673Z" fill="#00A859" fill-rule="evenodd"/><path d="M341.7 266.791 342 266.823C341.978 267.146 341.9 267.407 341.763 267.603 341.628 267.801 341.451 267.923 341.225 267.972 340.992 268.024 340.792 268.004 340.635 267.911 340.47 267.816 340.339 267.662 340.232 267.439 340.126 267.217 340.058 266.97 340.021 266.698 339.984 266.4 339.997 266.133 340.052 265.891 340.11 265.654 340.213 265.458 340.358 265.309 340.5 265.16 340.666 265.062 340.861 265.021 341.075 264.974 341.266 265.006 341.43 265.118 341.595 265.231 341.723 265.414 341.815 265.666L341.545 265.815C341.469 265.617 341.379 265.483 341.269 265.409 341.162 265.336 341.038 265.314 340.894 265.346 340.726 265.383 340.594 265.466 340.496 265.593 340.398 265.725 340.339 265.884 340.315 266.07 340.293 266.256 340.293 266.444 340.317 266.632 340.346 266.874 340.4 267.08 340.478 267.251 340.554 267.42 340.652 267.537 340.777 267.601 340.903 267.667 341.029 267.684 341.16 267.654 341.321 267.62 341.449 267.53 341.545 267.383 341.639 267.236 341.691 267.041 341.7 266.791Z" fill="#00A859" fill-rule="evenodd"/><path d="M343.616 267 343 264.083 343.384 264 344 266.917 343.616 267Z" fill="#00A859" fill-rule="evenodd"/><path d="M344.582 265.72 345.671 265.487 345.105 264.828C344.935 264.627 344.8 264.461 344.708 264.327 344.719 264.505 344.716 264.687 344.691 264.869L344.582 265.72ZM344 267 344.4 264.097 344.859 264 347 266.361 346.516 266.463 345.892 265.743 344.551 266.029 344.451 266.903 344 267Z" fill="#00A859" fill-rule="evenodd"/><path d="M347.556 266 346.883 263.691 346.09 263.965 346 263.657 347.91 263 348 263.311 347.205 263.582 347.872 265.893 347.556 266Z" fill="#00A859" fill-rule="evenodd"/><path d="M349.734 265 349 263.093 349.268 263 350 264.909 349.734 265Z" fill="#00A859" fill-rule="evenodd"/><path d="M350.556 263.928C350.703 264.252 350.909 264.467 351.174 264.578 351.434 264.691 351.704 264.691 351.978 264.578 352.258 264.467 352.449 264.281 352.544 264.019 352.642 263.762 352.614 263.46 352.459 263.114 352.361 262.899 352.24 262.725 352.086 262.592 351.939 262.462 351.769 262.382 351.581 262.355 351.395 262.325 351.207 262.347 351.022 262.423 350.757 262.529 350.569 262.705 350.458 262.955 350.345 263.203 350.378 263.529 350.556 263.928ZM350.172 264.078C349.976 263.637 349.948 263.239 350.085 262.887 350.221 262.534 350.489 262.279 350.886 262.119 351.143 262.014 351.401 261.98 351.663 262.011 351.923 262.046 352.153 262.146 352.361 262.313 352.562 262.477 352.724 262.695 352.843 262.962 352.961 263.232 353.013 263.499 352.997 263.757 352.974 264.016 352.884 264.247 352.724 264.441 352.565 264.637 352.361 264.781 352.114 264.882 351.851 264.987 351.591 265.024 351.326 264.985 351.066 264.948 350.834 264.847 350.633 264.678 350.43 264.514 350.278 264.313 350.172 264.078Z" fill="#00A859" fill-rule="evenodd"/><path d="M354.187 264 353 261.158 353.31 260.957 355.451 262.418 354.518 260.187 354.81 260 356 262.845 355.683 263.043 353.544 261.579 354.478 263.813 354.187 264Z" fill="#00A859" fill-rule="evenodd"/><path d="M358.765 261 357.731 258.972 357.141 259.47 357 259.198 358.42 258 358.557 258.274 357.966 258.772 359 260.8 358.765 261Z" fill="#00A859" fill-rule="evenodd"/><path d="M359.797 258.65 360.579 258.102 359.863 257.677C359.641 257.548 359.465 257.436 359.339 257.345 359.419 257.505 359.487 257.67 359.543 257.843L359.797 258.65ZM359.846 260 359 257.23 359.329 257 362 258.489 361.656 258.732 360.862 258.268 359.897 258.945 360.167 259.773 359.846 260Z" fill="#00A859" fill-rule="evenodd"/><path d="M362.726 258 361 256.199 361.27 256 363 257.799 362.726 258Z" fill="#00A859" fill-rule="evenodd"/><path d="M364.493 257 362 255.503 362.276 255.24 363.866 256.263C364.032 256.37 364.189 256.481 364.351 256.593 364.189 256.327 364.099 256.176 364.08 256.133L363.141 254.404 363.466 254.092 364.745 254.831C365.061 255.015 365.344 255.202 365.594 255.392 365.494 255.24 365.384 255.063 365.268 254.857L364.329 253.258 364.595 253 366 255.546 365.743 255.795 363.825 254.672C363.666 254.58 363.566 254.52 363.533 254.497 363.602 254.61 363.657 254.708 363.702 254.79L364.767 256.737 364.493 257Z" fill="#00A859" fill-rule="evenodd"/><path d="M366.026 253.612 366.626 252.885 365.879 252.592C365.654 252.503 365.47 252.423 365.336 252.356 365.441 252.503 365.538 252.662 365.627 252.83L366.026 253.612ZM366.349 255 365 252.306 365.252 252 368 252.991 367.737 253.314 366.914 252.998 366.179 253.898 366.599 254.699 366.349 255Z" fill="#00A859" fill-rule="evenodd"/><path d="M368.523 252 366 250.544 366.252 250.278 369.219 250.392 367.238 249.25 367.474 249 370 250.456 369.742 250.722 366.778 250.608 368.76 251.752 368.523 252Z" fill="#00A859" fill-rule="evenodd"/><path d="M370.604 250 370 249.603 370.396 249 371 249.402 370.604 250Z" fill="#00A859" fill-rule="evenodd"/><path d="M370.026 247.916 370.356 247.244C370.425 247.103 370.468 246.983 370.482 246.885 370.497 246.786 370.487 246.698 370.456 246.617 370.42 246.539 370.373 246.476 370.305 246.43 370.214 246.366 370.115 246.352 370.016 246.393 369.913 246.43 369.822 246.539 369.739 246.714L369.372 247.461 370.026 247.916ZM370.98 249 369 247.62 369.512 246.576C369.615 246.363 369.714 246.215 369.803 246.13 369.89 246.047 369.997 246.005 370.117 246 370.239 245.996 370.356 246.033 370.466 246.109 370.606 246.206 370.699 246.342 370.741 246.52 370.784 246.696 370.763 246.904 370.679 247.151 370.751 247.091 370.815 247.05 370.869 247.029 370.984 246.987 371.114 246.962 371.259 246.953L372 246.918 371.808 247.313 371.242 247.336C371.079 247.345 370.951 247.357 370.86 247.373 370.767 247.387 370.699 247.41 370.646 247.44 370.602 247.468 370.559 247.503 370.528 247.544 370.503 247.574 370.47 247.632 370.433 247.713L370.253 248.073 371.131 248.686 370.98 249Z" fill="#00A859" fill-rule="evenodd"/><path d="M372.655 246 372 245.659 372.336 245 373 245.341 372.655 246Z" fill="#00A859" fill-rule="evenodd"/><path d="M372.134 243.646C372.454 243.745 372.741 243.766 373.006 243.704 373.265 243.641 373.454 243.52 373.569 243.338 373.687 243.155 373.692 242.974 373.584 242.796 373.476 242.619 373.253 242.476 372.913 242.368 372.697 242.3 372.494 242.267 372.298 242.267 372.104 242.267 371.935 242.303 371.783 242.372 371.634 242.442 371.519 242.54 371.438 242.66 371.325 242.834 371.315 243.01 371.403 243.189 371.497 243.368 371.739 243.52 372.134 243.646ZM371.969 243.896C371.531 243.757 371.239 243.567 371.095 243.323 370.958 243.079 370.967 242.828 371.136 242.566 371.247 242.396 371.403 242.26 371.609 242.16 371.813 242.061 372.043 242.006 372.298 242.001 372.552 241.994 372.81 242.033 373.079 242.116 373.346 242.202 373.559 242.315 373.721 242.456 373.885 242.6 373.976 242.758 373.995 242.931 374.015 243.105 373.973 243.271 373.868 243.433 373.755 243.606 373.596 243.744 373.388 243.843 373.182 243.943 372.949 243.994 372.697 243.999 372.442 244.005 372.197 243.97 371.969 243.896Z" fill="#00A859" fill-rule="evenodd"/><path d="M374.724 242 374 241.72 374.28 241 375 241.28 374.724 242Z" fill="#00A859" fill-rule="evenodd"/><path d="M375.174 237.744 375.392 237.373C375.667 237.573 375.849 237.813 375.937 238.091 376.026 238.369 376.021 238.669 375.922 238.988 375.822 239.319 375.679 239.561 375.495 239.722 375.311 239.883 375.088 239.973 374.83 239.995 374.567 240.014 374.302 239.976 374.042 239.878 373.755 239.769 373.524 239.611 373.347 239.411 373.173 239.21 373.062 238.972 373.021 238.708 372.979 238.44 373.001 238.173 373.082 237.903 373.178 237.597 373.328 237.368 373.531 237.212 373.735 237.057 373.973 236.986 374.251 237.002L374.216 237.431C373.993 237.425 373.816 237.474 373.684 237.573 373.551 237.673 373.455 237.826 373.394 238.028 373.32 238.266 373.31 238.481 373.364 238.677 373.416 238.871 373.517 239.035 373.669 239.163 373.821 239.291 373.985 239.39 374.165 239.458 374.403 239.548 374.616 239.586 374.813 239.578 375.012 239.567 375.174 239.499 375.314 239.373 375.446 239.248 375.542 239.092 375.598 238.904 375.672 238.677 375.672 238.462 375.601 238.26 375.532 238.061 375.39 237.886 375.174 237.744Z" fill="#00A859" fill-rule="evenodd"/><path d="M294.435 208.157C294.264 208.286 294.128 208.371 294.034 208.411L293.974 208.267 293.481 209.499C293.598 209.705 293.7 209.901 293.78 210.095L294.435 208.157ZM297 207.103 294.642 213 294.285 212.857 295.371 210.139 295.013 209.994 294.172 212.099 293.815 211.956 294.651 209.848 294.294 209.705 293.564 211.974 293.163 211.93 293.626 210.629 293.298 209.961 292.764 211.295 292.356 211.128 294.078 206.821 294.488 206.985 294.117 207.909C294.186 207.838 294.352 207.694 294.615 207.484 294.889 207.297 295.126 207.124 295.327 206.967L295.534 207.345C295.315 207.498 295.119 207.637 294.949 207.766L294.455 209.296 294.815 209.441 295.656 207.336 296.016 207.479 295.177 209.585 295.536 209.728 296.64 206.957 297 207.103ZM293.992 205.834C294.354 206.019 294.702 206.241 295.041 206.493 294.933 206.569 294.813 206.659 294.688 206.77 294.527 206.585 294.296 206.414 294.004 206.257L291.973 211.336 292.897 211.706 292.736 212.117 291.45 211.602 293.766 205.804 293.992 205.834ZM292.699 206.685 292.446 206.583 290.989 210.225 291.245 210.329 292.699 206.685ZM293.222 206.419 291.464 210.83 290.436 210.417 292.194 206.005 293.222 206.419ZM291.528 205.143 290.503 207.708 290.814 207.833 291.694 205.626 292.105 205.79 290.199 210.562 289.786 210.398 290.648 208.244 290.341 208.12 289.357 210.581 289 210.437 289.982 207.974 289.622 207.828C289.721 207.577 289.797 207.438 289.848 207.415 289.894 207.394 289.947 207.424 289.989 207.503L290.145 207.565 291.171 205 291.528 205.143Z" fill="#00A859" fill-rule="evenodd"/><text fill="#FFFFFF" font-family="Microsoft JhengHei,Microsoft JhengHei_MSFontService,sans-serif" font-weight="700" font-size="37" transform="translate(393.481 214)"><tspan x="218.2" y="0"></tspan><tspan x="-0.0654907" y="45"></tspan></text></g></svg>